<svg width="586" height="354" viewBox="0 0 586 354" fill="none" xmlns="http://www.w3.org/2000/svg">
<path d="M51.1783 45.5177C56.4983 45.5177 61.0949 46.521 64.9683 48.5277C68.8883 50.4877 71.8749 53.311 73.9283 56.9977C76.0283 60.6844 77.0783 65.0244 77.0783 70.0177C77.0783 75.011 76.0283 79.351 73.9283 83.0377C71.8749 86.6777 68.8883 89.4777 64.9683 91.4377C61.0949 93.351 56.4983 94.3077 51.1783 94.3077H35.9883V45.5177H51.1783ZM51.1783 89.0577C57.4783 89.0577 62.2849 87.401 65.5983 84.0877C68.9116 80.7277 70.5683 76.0377 70.5683 70.0177C70.5683 63.951 68.8883 59.2144 65.5283 55.8077C62.2149 52.401 57.4316 50.6977 51.1783 50.6977H42.3583V89.0577H51.1783ZM120.48 73.6577C120.48 74.871 120.41 76.1544 120.27 77.5077H89.6105C89.8438 81.2877 91.1271 84.251 93.4605 86.3977C95.8405 88.4977 98.7105 89.5477 102.07 89.5477C104.824 89.5477 107.11 88.9177 108.93 87.6577C110.797 86.351 112.104 84.6244 112.85 82.4777H119.71C118.684 86.1644 116.63 89.1744 113.55 91.5077C110.47 93.7944 106.644 94.9377 102.07 94.9377C98.4305 94.9377 95.1638 94.121 92.2705 92.4877C89.4238 90.8544 87.1838 88.5444 85.5505 85.5577C83.9171 82.5244 83.1005 79.0244 83.1005 75.0577C83.1005 71.091 83.8938 67.6144 85.4805 64.6277C87.0671 61.641 89.2838 59.3544 92.1305 57.7677C95.0238 56.1344 98.3371 55.3177 102.07 55.3177C105.71 55.3177 108.93 56.111 111.73 57.6977C114.53 59.2844 116.677 61.4777 118.17 64.2777C119.71 67.031 120.48 70.1577 120.48 73.6577ZM113.9 72.3277C113.9 69.901 113.364 67.8244 112.29 66.0977C111.217 64.3244 109.747 62.9944 107.88 62.1077C106.06 61.1744 104.03 60.7077 101.79 60.7077C98.5705 60.7077 95.8171 61.7344 93.5305 63.7877C91.2905 65.841 90.0071 68.6877 89.6805 72.3277H113.9ZM142.469 94.9377C139.529 94.9377 136.892 94.4477 134.559 93.4677C132.225 92.441 130.382 91.041 129.029 89.2677C127.675 87.4477 126.929 85.371 126.789 83.0377H133.369C133.555 84.951 134.442 86.5144 136.029 87.7277C137.662 88.941 139.785 89.5477 142.399 89.5477C144.825 89.5477 146.739 89.011 148.139 87.9377C149.539 86.8644 150.239 85.511 150.239 83.8777C150.239 82.1977 149.492 80.961 147.999 80.1677C146.505 79.3277 144.195 78.511 141.069 77.7177C138.222 76.971 135.889 76.2244 134.069 75.4777C132.295 74.6844 130.755 73.541 129.449 72.0477C128.189 70.5077 127.559 68.501 127.559 66.0277C127.559 64.0677 128.142 62.271 129.309 60.6377C130.475 59.0044 132.132 57.721 134.279 56.7877C136.425 55.8077 138.875 55.3177 141.629 55.3177C145.875 55.3177 149.305 56.391 151.919 58.5377C154.532 60.6844 155.932 63.6244 156.119 67.3577H149.749C149.609 65.351 148.792 63.741 147.299 62.5277C145.852 61.3144 143.892 60.7077 141.419 60.7077C139.132 60.7077 137.312 61.1977 135.959 62.1777C134.605 63.1577 133.929 64.441 133.929 66.0277C133.929 67.2877 134.325 68.3377 135.119 69.1777C135.959 69.971 136.985 70.6244 138.199 71.1377C139.459 71.6044 141.185 72.141 143.379 72.7477C146.132 73.4944 148.372 74.241 150.099 74.9877C151.825 75.6877 153.295 76.761 154.509 78.2077C155.769 79.6544 156.422 81.5444 156.469 83.8777C156.469 85.9777 155.885 87.8677 154.719 89.5477C153.552 91.2277 151.895 92.5577 149.749 93.5377C147.649 94.471 145.222 94.9377 142.469 94.9377ZM168.751 49.7177C167.538 49.7177 166.511 49.2977 165.671 48.4577C164.831 47.6177 164.411 46.591 164.411 45.3777C164.411 44.1644 164.831 43.1377 165.671 42.2977C166.511 41.4577 167.538 41.0377 168.751 41.0377C169.918 41.0377 170.898 41.4577 171.691 42.2977C172.531 43.1377 172.951 44.1644 172.951 45.3777C172.951 46.591 172.531 47.6177 171.691 48.4577C170.898 49.2977 169.918 49.7177 168.751 49.7177ZM171.831 55.9477V94.3077H165.461V55.9477H171.831ZM198.507 55.3177C201.821 55.3177 204.714 56.041 207.187 57.4877C209.707 58.9344 211.574 60.7544 212.787 62.9477V55.9477H219.227V95.1477C219.227 98.6477 218.481 101.751 216.987 104.458C215.494 107.211 213.347 109.358 210.547 110.898C207.794 112.438 204.574 113.208 200.887 113.208C195.847 113.208 191.647 112.018 188.287 109.638C184.927 107.258 182.944 104.014 182.337 99.9077H188.637C189.337 102.241 190.784 104.108 192.977 105.508C195.171 106.954 197.807 107.678 200.887 107.678C204.387 107.678 207.234 106.581 209.427 104.388C211.667 102.194 212.787 99.1144 212.787 95.1477V87.0977C211.527 89.3377 209.661 91.2044 207.187 92.6977C204.714 94.191 201.821 94.9377 198.507 94.9377C195.101 94.9377 191.997 94.0977 189.197 92.4177C186.444 90.7377 184.274 88.381 182.687 85.3477C181.101 82.3144 180.307 78.861 180.307 74.9877C180.307 71.0677 181.101 67.6377 182.687 64.6977C184.274 61.711 186.444 59.401 189.197 57.7677C191.997 56.1344 195.101 55.3177 198.507 55.3177ZM212.787 75.0577C212.787 72.1644 212.204 69.6444 211.037 67.4977C209.871 65.351 208.284 63.7177 206.277 62.5977C204.317 61.431 202.147 60.8477 199.767 60.8477C197.387 60.8477 195.217 61.4077 193.257 62.5277C191.297 63.6477 189.734 65.281 188.567 67.4277C187.401 69.5744 186.817 72.0944 186.817 74.9877C186.817 77.9277 187.401 80.4944 188.567 82.6877C189.734 84.8344 191.297 86.491 193.257 87.6577C195.217 88.7777 197.387 89.3377 199.767 89.3377C202.147 89.3377 204.317 88.7777 206.277 87.6577C208.284 86.491 209.871 84.8344 211.037 82.6877C212.204 80.4944 212.787 77.951 212.787 75.0577ZM248.682 55.2477C253.349 55.2477 257.129 56.671 260.022 59.5177C262.916 62.3177 264.362 66.3777 264.362 71.6977V94.3077H258.062V72.6077C258.062 68.781 257.106 65.8644 255.192 63.8577C253.279 61.8044 250.666 60.7777 247.352 60.7777C243.992 60.7777 241.309 61.8277 239.302 63.9277C237.342 66.0277 236.362 69.0844 236.362 73.0977V94.3077H229.992V55.9477H236.362V61.4077C237.622 59.4477 239.326 57.931 241.472 56.8577C243.666 55.7844 246.069 55.2477 248.682 55.2477ZM33.6083 174.878C33.6083 170.118 34.6816 165.848 36.8283 162.068C38.9749 158.241 41.8916 155.254 45.5783 153.108C49.3116 150.961 53.4416 149.888 57.9683 149.888C63.2883 149.888 67.9316 151.171 71.8983 153.738C75.8649 156.304 78.7583 159.944 80.5783 164.658H72.9483C71.5949 161.718 69.6349 159.454 67.0683 157.868C64.5483 156.281 61.5149 155.488 57.9683 155.488C54.5616 155.488 51.5049 156.281 48.7983 157.868C46.0916 159.454 43.9683 161.718 42.4283 164.658C40.8883 167.551 40.1183 170.958 40.1183 174.878C40.1183 178.751 40.8883 182.158 42.4283 185.098C43.9683 187.991 46.0916 190.231 48.7983 191.818C51.5049 193.404 54.5616 194.198 57.9683 194.198C61.5149 194.198 64.5483 193.428 67.0683 191.888C69.6349 190.301 71.5949 188.038 72.9483 185.098H80.5783C78.7583 189.764 75.8649 193.381 71.8983 195.948C67.9316 198.468 63.2883 199.728 57.9683 199.728C53.4416 199.728 49.3116 198.678 45.5783 196.578C41.8916 194.431 38.9749 191.468 36.8283 187.688C34.6816 183.908 33.6083 179.638 33.6083 174.878ZM96.4305 167.178C97.5505 164.984 99.1372 163.281 101.191 162.068C103.291 160.854 105.834 160.248 108.821 160.248V166.828H107.141C100.001 166.828 96.4305 170.701 96.4305 178.448V199.308H90.0605V160.948H96.4305V167.178ZM151.174 178.658C151.174 179.871 151.104 181.154 150.964 182.508H120.304C120.537 186.288 121.82 189.251 124.154 191.398C126.534 193.498 129.404 194.548 132.764 194.548C135.517 194.548 137.804 193.918 139.624 192.658C141.49 191.351 142.797 189.624 143.544 187.478H150.404C149.377 191.164 147.324 194.174 144.244 196.508C141.164 198.794 137.337 199.938 132.764 199.938C129.124 199.938 125.857 199.121 122.964 197.488C120.117 195.854 117.877 193.544 116.244 190.558C114.61 187.524 113.794 184.024 113.794 180.058C113.794 176.091 114.587 172.614 116.174 169.628C117.76 166.641 119.977 164.354 122.824 162.768C125.717 161.134 129.03 160.318 132.764 160.318C136.404 160.318 139.624 161.111 142.424 162.698C145.224 164.284 147.37 166.478 148.864 169.278C150.404 172.031 151.174 175.158 151.174 178.658ZM144.594 177.328C144.594 174.901 144.057 172.824 142.984 171.098C141.91 169.324 140.44 167.994 138.574 167.108C136.754 166.174 134.724 165.708 132.484 165.708C129.264 165.708 126.51 166.734 124.224 168.788C121.984 170.841 120.7 173.688 120.374 177.328H144.594ZM157.202 179.988C157.202 176.068 157.995 172.638 159.582 169.698C161.169 166.711 163.339 164.401 166.092 162.768C168.892 161.134 171.995 160.318 175.402 160.318C178.762 160.318 181.679 161.041 184.152 162.488C186.625 163.934 188.469 165.754 189.682 167.948V160.948H196.122V199.308H189.682V192.168C188.422 194.408 186.532 196.274 184.012 197.768C181.539 199.214 178.645 199.938 175.332 199.938C171.925 199.938 168.845 199.098 166.092 197.418C163.339 195.738 161.169 193.381 159.582 190.348C157.995 187.314 157.202 183.861 157.202 179.988ZM189.682 180.058C189.682 177.164 189.099 174.644 187.932 172.498C186.765 170.351 185.179 168.718 183.172 167.598C181.212 166.431 179.042 165.848 176.662 165.848C174.282 165.848 172.112 166.408 170.152 167.528C168.192 168.648 166.629 170.281 165.462 172.428C164.295 174.574 163.712 177.094 163.712 179.988C163.712 182.928 164.295 185.494 165.462 187.688C166.629 189.834 168.192 191.491 170.152 192.658C172.112 193.778 174.282 194.338 176.662 194.338C179.042 194.338 181.212 193.778 183.172 192.658C185.179 191.491 186.765 189.834 187.932 187.688C189.099 185.494 189.682 182.951 189.682 180.058ZM214.657 166.198V188.808C214.657 190.674 215.053 192.004 215.847 192.798C216.64 193.544 218.017 193.918 219.977 193.918H224.667V199.308H218.927C215.38 199.308 212.72 198.491 210.947 196.858C209.173 195.224 208.287 192.541 208.287 188.808V166.198H203.317V160.948H208.287V151.288H214.657V160.948H224.667V166.198H214.657ZM267.385 178.658C267.385 179.871 267.315 181.154 267.175 182.508H236.515C236.748 186.288 238.031 189.251 240.365 191.398C242.745 193.498 245.615 194.548 248.975 194.548C251.728 194.548 254.015 193.918 255.835 192.658C257.701 191.351 259.008 189.624 259.755 187.478H266.615C265.588 191.164 263.535 194.174 260.455 196.508C257.375 198.794 253.548 199.938 248.975 199.938C245.335 199.938 242.068 199.121 239.175 197.488C236.328 195.854 234.088 193.544 232.455 190.558C230.821 187.524 230.005 184.024 230.005 180.058C230.005 176.091 230.798 172.614 232.385 169.628C233.971 166.641 236.188 164.354 239.035 162.768C241.928 161.134 245.241 160.318 248.975 160.318C252.615 160.318 255.835 161.111 258.635 162.698C261.435 164.284 263.581 166.478 265.075 169.278C266.615 172.031 267.385 175.158 267.385 178.658ZM260.805 177.328C260.805 174.901 260.268 172.824 259.195 171.098C258.121 169.324 256.651 167.994 254.785 167.108C252.965 166.174 250.935 165.708 248.695 165.708C245.475 165.708 242.721 166.734 240.435 168.788C238.195 170.841 236.911 173.688 236.585 177.328H260.805ZM331.905 199.308L325.535 192.868C323.155 195.341 320.612 197.184 317.905 198.398C315.198 199.564 312.142 200.148 308.735 200.148C305.375 200.148 302.388 199.541 299.775 198.328C297.208 197.114 295.202 195.388 293.755 193.148C292.355 190.908 291.655 188.294 291.655 185.308C291.655 181.901 292.612 178.914 294.525 176.348C296.485 173.734 299.355 171.681 303.135 170.188C301.642 168.414 300.568 166.781 299.915 165.288C299.262 163.794 298.935 162.161 298.935 160.388C298.935 158.334 299.448 156.491 300.475 154.858C301.548 153.178 303.065 151.871 305.025 150.938C306.985 150.004 309.248 149.538 311.815 149.538C314.335 149.538 316.528 150.028 318.395 151.008C320.262 151.988 321.662 153.364 322.595 155.138C323.528 156.864 323.948 158.801 323.855 160.948H317.485C317.532 159.034 316.995 157.541 315.875 156.468C314.755 155.348 313.308 154.788 311.535 154.788C309.668 154.788 308.152 155.324 306.985 156.398C305.865 157.424 305.305 158.754 305.305 160.388C305.305 161.788 305.678 163.141 306.425 164.448C307.218 165.754 308.525 167.364 310.345 169.278L324.905 183.908L326.165 181.948L330.925 173.968H337.785L332.045 183.908C331.252 185.308 330.318 186.778 329.245 188.318L340.235 199.308H331.905ZM308.735 194.688C311.255 194.688 313.518 194.198 315.525 193.218C317.578 192.238 319.515 190.721 321.335 188.668L306.985 174.248C301.012 176.534 298.025 180.151 298.025 185.098C298.025 187.851 299.005 190.138 300.965 191.958C302.972 193.778 305.562 194.688 308.735 194.688ZM51.1783 255.518C56.4983 255.518 61.0949 256.521 64.9683 258.528C68.8883 260.488 71.8749 263.311 73.9283 266.998C76.0283 270.684 77.0783 275.024 77.0783 280.018C77.0783 285.011 76.0283 289.351 73.9283 293.038C71.8749 296.678 68.8883 299.478 64.9683 301.438C61.0949 303.351 56.4983 304.308 51.1783 304.308H35.9883V255.518H51.1783ZM51.1783 299.058C57.4783 299.058 62.2849 297.401 65.5983 294.088C68.9116 290.728 70.5683 286.038 70.5683 280.018C70.5683 273.951 68.8883 269.214 65.5283 265.808C62.2149 262.401 57.4316 260.698 51.1783 260.698H42.3583V299.058H51.1783ZM120.48 283.658C120.48 284.871 120.41 286.154 120.27 287.508H89.6105C89.8438 291.288 91.1271 294.251 93.4605 296.398C95.8405 298.498 98.7105 299.548 102.07 299.548C104.824 299.548 107.11 298.918 108.93 297.658C110.797 296.351 112.104 294.624 112.85 292.478H119.71C118.684 296.164 116.63 299.174 113.55 301.508C110.47 303.794 106.644 304.938 102.07 304.938C98.4305 304.938 95.1638 304.121 92.2705 302.488C89.4238 300.854 87.1838 298.544 85.5505 295.558C83.9171 292.524 83.1005 289.024 83.1005 285.058C83.1005 281.091 83.8938 277.614 85.4805 274.628C87.0671 271.641 89.2838 269.354 92.1305 267.768C95.0238 266.134 98.3371 265.318 102.07 265.318C105.71 265.318 108.93 266.111 111.73 267.698C114.53 269.284 116.677 271.478 118.17 274.278C119.71 277.031 120.48 280.158 120.48 283.658ZM113.9 282.328C113.9 279.901 113.364 277.824 112.29 276.098C111.217 274.324 109.747 272.994 107.88 272.108C106.06 271.174 104.03 270.708 101.79 270.708C98.5705 270.708 95.8171 271.734 93.5305 273.788C91.2905 275.841 90.0071 278.688 89.6805 282.328H113.9ZM143.169 298.428L155.069 265.948H161.859L146.809 304.308H139.389L124.339 265.948H131.199L143.169 298.428ZM203.127 283.658C203.127 284.871 203.057 286.154 202.917 287.508H172.257C172.49 291.288 173.774 294.251 176.107 296.398C178.487 298.498 181.357 299.548 184.717 299.548C187.47 299.548 189.757 298.918 191.577 297.658C193.444 296.351 194.75 294.624 195.497 292.478H202.357C201.33 296.164 199.277 299.174 196.197 301.508C193.117 303.794 189.29 304.938 184.717 304.938C181.077 304.938 177.81 304.121 174.917 302.488C172.07 300.854 169.83 298.544 168.197 295.558C166.564 292.524 165.747 289.024 165.747 285.058C165.747 281.091 166.54 277.614 168.127 274.628C169.714 271.641 171.93 269.354 174.777 267.768C177.67 266.134 180.984 265.318 184.717 265.318C188.357 265.318 191.577 266.111 194.377 267.698C197.177 269.284 199.324 271.478 200.817 274.278C202.357 277.031 203.127 280.158 203.127 283.658ZM196.547 282.328C196.547 279.901 196.01 277.824 194.937 276.098C193.864 274.324 192.394 272.994 190.527 272.108C188.707 271.174 186.677 270.708 184.437 270.708C181.217 270.708 178.464 271.734 176.177 273.788C173.937 275.841 172.654 278.688 172.327 282.328H196.547ZM217.905 252.508V304.308H211.535V252.508H217.905ZM245.492 304.938C241.898 304.938 238.632 304.121 235.692 302.488C232.798 300.854 230.512 298.544 228.832 295.558C227.198 292.524 226.382 289.024 226.382 285.058C226.382 281.138 227.222 277.684 228.902 274.698C230.628 271.664 232.962 269.354 235.902 267.768C238.842 266.134 242.132 265.318 245.772 265.318C249.412 265.318 252.702 266.134 255.642 267.768C258.582 269.354 260.892 271.641 262.572 274.628C264.298 277.614 265.162 281.091 265.162 285.058C265.162 289.024 264.275 292.524 262.502 295.558C260.775 298.544 258.418 300.854 255.432 302.488C252.445 304.121 249.132 304.938 245.492 304.938ZM245.492 299.338C247.778 299.338 249.925 298.801 251.932 297.728C253.938 296.654 255.548 295.044 256.762 292.898C258.022 290.751 258.652 288.138 258.652 285.058C258.652 281.978 258.045 279.364 256.832 277.218C255.618 275.071 254.032 273.484 252.072 272.458C250.112 271.384 247.988 270.848 245.702 270.848C243.368 270.848 241.222 271.384 239.262 272.458C237.348 273.484 235.808 275.071 234.642 277.218C233.475 279.364 232.892 281.978 232.892 285.058C232.892 288.184 233.452 290.821 234.572 292.968C235.738 295.114 237.278 296.724 239.192 297.798C241.105 298.824 243.205 299.338 245.492 299.338ZM279.907 273.018C281.167 270.824 283.034 269.004 285.507 267.558C288.027 266.064 290.944 265.318 294.257 265.318C297.664 265.318 300.744 266.134 303.497 267.768C306.297 269.401 308.49 271.711 310.077 274.698C311.664 277.638 312.457 281.068 312.457 284.988C312.457 288.861 311.664 292.314 310.077 295.348C308.49 298.381 306.297 300.738 303.497 302.418C300.744 304.098 297.664 304.938 294.257 304.938C290.99 304.938 288.097 304.214 285.577 302.768C283.104 301.274 281.214 299.431 279.907 297.238V322.508H273.537V265.948H279.907V273.018ZM305.947 284.988C305.947 282.094 305.364 279.574 304.197 277.428C303.03 275.281 301.444 273.648 299.437 272.528C297.477 271.408 295.307 270.848 292.927 270.848C290.594 270.848 288.424 271.431 286.417 272.598C284.457 273.718 282.87 275.374 281.657 277.568C280.49 279.714 279.907 282.211 279.907 285.058C279.907 287.951 280.49 290.494 281.657 292.688C282.87 294.834 284.457 296.491 286.417 297.658C288.424 298.778 290.594 299.338 292.927 299.338C295.307 299.338 297.477 298.778 299.437 297.658C301.444 296.491 303.03 294.834 304.197 292.688C305.364 290.494 305.947 287.928 305.947 284.988Z" fill="white"/>
<path d="M64.9683 48.5277L64.0483 50.3035L64.061 50.3101L64.0738 50.3165L64.9683 48.5277ZM73.9283 56.9977L72.181 57.9709L72.1857 57.9792L72.1904 57.9876L73.9283 56.9977ZM73.9283 83.0377L72.1904 82.0478L72.1863 82.0551L73.9283 83.0377ZM64.9683 91.4377L65.8541 93.2309L65.8627 93.2265L64.9683 91.4377ZM35.9883 94.3077H33.9883V96.3077H35.9883V94.3077ZM35.9883 45.5177V43.5177H33.9883V45.5177H35.9883ZM65.5983 84.0877L67.0125 85.5019L67.0223 85.492L65.5983 84.0877ZM65.5283 55.8077L64.0945 57.2022L64.1043 57.2121L65.5283 55.8077ZM42.3583 50.6977V48.6977H40.3583V50.6977H42.3583ZM42.3583 89.0577H40.3583V91.0577H42.3583V89.0577ZM51.1783 47.5177C56.2475 47.5177 60.515 48.4731 64.0483 50.3035L65.8883 46.7519C61.6748 44.569 56.7491 43.5177 51.1783 43.5177V47.5177ZM64.0738 50.3165C67.6487 52.104 70.3313 54.6498 72.181 57.9709L75.6755 56.0245C73.4186 51.9723 70.1278 48.8714 65.8627 46.7388L64.0738 50.3165ZM72.1904 57.9876C74.0904 61.3232 75.0783 65.3097 75.0783 70.0177H79.0783C79.0783 64.739 77.9661 60.0456 75.6661 56.0078L72.1904 57.9876ZM75.0783 70.0177C75.0783 74.7257 74.0904 78.7122 72.1904 82.0478L75.6661 84.0276C77.9661 79.9898 79.0783 75.2964 79.0783 70.0177H75.0783ZM72.1863 82.0551C70.3387 85.3304 67.6556 87.8579 64.0738 89.6488L65.8627 93.2265C70.1209 91.0974 73.4112 88.025 75.6702 84.0203L72.1863 82.0551ZM64.0825 89.6445C60.541 91.394 56.2608 92.3077 51.1783 92.3077V96.3077C56.7357 96.3077 61.6489 95.3081 65.854 93.2308L64.0825 89.6445ZM51.1783 92.3077H35.9883V96.3077H51.1783V92.3077ZM37.9883 94.3077V45.5177H33.9883V94.3077H37.9883ZM35.9883 47.5177H51.1783V43.5177H35.9883V47.5177ZM51.1783 91.0577C57.8205 91.0577 63.2092 89.3052 67.0125 85.5019L64.1841 82.6735C61.3607 85.4968 57.1361 87.0577 51.1783 87.0577V91.0577ZM67.0223 85.492C70.7991 81.6621 72.5683 76.4116 72.5683 70.0177H68.5683C68.5683 75.6638 67.0241 79.7933 64.1742 82.6834L67.0223 85.492ZM72.5683 70.0177C72.5683 63.5731 70.7735 58.2776 66.9522 54.4033L64.1043 57.2121C67.003 60.1511 68.5683 64.329 68.5683 70.0177H72.5683ZM66.962 54.4133C63.1639 50.5082 57.7938 48.6977 51.1783 48.6977V52.6977C57.0694 52.6977 61.2659 54.2938 64.0946 57.2021L66.962 54.4133ZM51.1783 48.6977H42.3583V52.6977H51.1783V48.6977ZM40.3583 50.6977V89.0577H44.3583V50.6977H40.3583ZM42.3583 91.0577H51.1783V87.0577H42.3583V91.0577ZM120.27 77.5077V79.5077H122.074L122.26 77.7135L120.27 77.5077ZM89.6105 77.5077V75.5077H87.4832L87.6143 77.6309L89.6105 77.5077ZM93.4605 86.3977L92.1063 87.8696L92.1216 87.8836L92.1372 87.8974L93.4605 86.3977ZM108.93 87.6577L110.069 89.3021L110.077 89.2962L108.93 87.6577ZM112.85 82.4777V80.4777H111.429L110.961 81.8207L112.85 82.4777ZM119.71 82.4777L121.637 83.0142L122.344 80.4777H119.71V82.4777ZM113.55 91.5077L114.743 93.1135L114.75 93.1077L114.758 93.1019L113.55 91.5077ZM92.2705 92.4877L91.2751 94.2225L91.2873 94.2293L92.2705 92.4877ZM85.5505 85.5577L83.7895 86.5059L83.7957 86.5173L85.5505 85.5577ZM85.4805 64.6277L87.2467 65.566L87.2467 65.566L85.4805 64.6277ZM92.1305 57.7677L93.1042 59.5147L93.1136 59.5093L92.1305 57.7677ZM111.73 57.6977L110.744 59.4377L110.744 59.4377L111.73 57.6977ZM118.17 64.2777L116.406 65.2189L116.415 65.2365L116.425 65.254L118.17 64.2777ZM113.9 72.3277V74.3277H115.9V72.3277H113.9ZM112.29 66.0977L110.579 67.1333L110.586 67.1435L110.592 67.1536L112.29 66.0977ZM107.88 62.1077L106.968 63.8873L106.995 63.9012L107.022 63.9142L107.88 62.1077ZM93.5305 63.7877L92.1942 62.2996L92.1866 62.3065L92.179 62.3134L93.5305 63.7877ZM89.6805 72.3277L87.6885 72.1489L87.4929 74.3277H89.6805V72.3277ZM118.48 73.6577C118.48 74.7946 118.415 76.0089 118.281 77.3019L122.26 77.7135C122.406 76.2998 122.48 74.9474 122.48 73.6577H118.48ZM120.27 75.5077H89.6105V79.5077H120.27V75.5077ZM87.6143 77.6309C87.8728 81.8197 89.3208 85.3068 92.1063 87.8696L94.8146 84.9258C92.9335 83.1952 91.8148 80.7557 91.6067 77.3845L87.6143 77.6309ZM92.1372 87.8974C94.9053 90.3398 98.2543 91.5477 102.07 91.5477V87.5477C99.1666 87.5477 96.7756 86.6556 94.7837 84.898L92.1372 87.8974ZM102.07 91.5477C105.131 91.5477 107.841 90.8447 110.069 89.3021L107.792 86.0133C106.38 86.9907 104.517 87.5477 102.07 87.5477V91.5477ZM110.077 89.2962C112.287 87.7491 113.854 85.6795 114.739 83.1347L110.961 81.8207C110.353 83.5693 109.307 84.9529 107.784 86.0192L110.077 89.2962ZM112.85 84.4777H119.71V80.4777H112.85V84.4777ZM117.784 81.9411C116.876 85.2017 115.077 87.8418 112.343 89.9135L114.758 93.1019C118.183 90.507 120.492 87.127 121.637 83.0142L117.784 81.9411ZM112.358 89.9019C109.686 91.8862 106.299 92.9377 102.07 92.9377V96.9377C106.988 96.9377 111.255 95.7025 114.743 93.1135L112.358 89.9019ZM102.07 92.9377C98.7412 92.9377 95.8189 92.1941 93.2536 90.746L91.2873 94.2293C94.5087 96.0479 98.1197 96.9377 102.07 96.9377V92.9377ZM93.2658 90.753C90.7511 89.3101 88.7686 87.274 87.3052 84.5981L83.7957 86.5173C85.599 89.8148 88.0965 92.3986 91.2751 94.2224L93.2658 90.753ZM87.3114 84.6095C85.8573 81.909 85.1005 78.7439 85.1005 75.0577H81.1005C81.1005 79.3048 81.9769 83.1397 83.7895 86.5059L87.3114 84.6095ZM85.1005 75.0577C85.1005 71.3616 85.8381 68.2175 87.2467 65.566L83.7142 63.6894C81.9495 67.0112 81.1005 70.8205 81.1005 75.0577H85.1005ZM87.2467 65.566C88.6598 62.9061 90.6072 60.9064 93.1042 59.5147L91.1567 56.0207C87.9604 57.8023 85.4745 60.376 83.7142 63.6894L87.2467 65.566ZM93.1136 59.5093C95.6713 58.0655 98.6382 57.3177 102.07 57.3177V53.3177C98.036 53.3177 94.3763 54.2032 91.1473 56.026L93.1136 59.5093ZM102.07 57.3177C105.411 57.3177 108.283 58.0428 110.744 59.4377L112.716 55.9576C109.578 54.1792 106.01 53.3177 102.07 53.3177V57.3177ZM110.744 59.4377C113.219 60.8402 115.094 62.7586 116.406 65.2189L119.935 63.3365C118.261 60.1968 115.842 57.7286 112.716 55.9576L110.744 59.4377ZM116.425 65.254C117.78 67.6773 118.48 70.4613 118.48 73.6577H122.48C122.48 69.8541 121.641 66.3847 119.916 63.3014L116.425 65.254ZM115.9 72.3277C115.9 69.6008 115.295 67.1421 113.989 65.0418L110.592 67.1536C111.433 68.5066 111.9 70.2013 111.9 72.3277H115.9ZM114.001 65.0621C112.726 62.9549 110.96 61.3563 108.739 60.3011L107.022 63.9142C108.534 64.6324 109.708 65.6938 110.579 67.1333L114.001 65.0621ZM108.793 60.3281C106.665 59.2365 104.317 58.7077 101.79 58.7077V62.7077C103.744 62.7077 105.456 63.1122 106.968 63.8873L108.793 60.3281ZM101.79 58.7077C98.103 58.7077 94.8667 59.8998 92.1942 62.2996L94.8667 65.2758C96.7676 63.5689 99.038 62.7077 101.79 62.7077V58.7077ZM92.179 62.3134C89.4998 64.7693 88.0502 68.1185 87.6885 72.1489L91.6724 72.5065C91.9641 69.2569 93.0811 66.9127 94.8819 65.262L92.179 62.3134ZM89.6805 74.3277H113.9V70.3277H89.6805V74.3277ZM134.559 93.4677L133.753 95.2983L133.769 95.3051L133.784 95.3117L134.559 93.4677ZM129.029 89.2677L127.424 90.4611L127.431 90.4711L127.439 90.481L129.029 89.2677ZM126.789 83.0377V81.0377H124.665L124.792 83.1575L126.789 83.0377ZM133.369 83.0377L135.359 82.8435L135.183 81.0377H133.369V83.0377ZM136.029 87.7277L134.814 89.3164L134.825 89.3249L134.836 89.3332L136.029 87.7277ZM147.999 80.1677L147.018 81.9108L147.039 81.9226L147.06 81.9339L147.999 80.1677ZM141.069 77.7177L140.561 79.6523L140.569 79.6543L140.577 79.6563L141.069 77.7177ZM134.069 75.4777L133.252 77.3033L133.281 77.3161L133.31 77.328L134.069 75.4777ZM129.449 72.0477L127.901 73.3142L127.922 73.3398L127.944 73.3647L129.449 72.0477ZM129.309 60.6377L127.681 59.4752L127.681 59.4752L129.309 60.6377ZM134.279 56.7877L135.076 58.6218L135.093 58.6146L135.109 58.6071L134.279 56.7877ZM151.919 58.5377L150.649 60.0831L151.919 58.5377ZM156.119 67.3577V69.3577H158.221L158.116 67.2578L156.119 67.3577ZM149.749 67.3577L147.754 67.4969L147.883 69.3577H149.749V67.3577ZM147.299 62.5277L146.013 64.0601L146.025 64.0701L146.037 64.0799L147.299 62.5277ZM135.959 62.1777L134.786 60.5578L134.786 60.5578L135.959 62.1777ZM135.119 69.1777L133.665 70.5509L133.704 70.5925L133.745 70.6317L135.119 69.1777ZM138.199 71.1377L137.419 72.9796L137.461 72.9974L137.504 73.0132L138.199 71.1377ZM143.379 72.7477L142.845 74.6753L142.855 74.678L143.379 72.7477ZM150.099 74.9877L149.305 76.8234L149.326 76.8325L149.347 76.8412L150.099 74.9877ZM154.509 78.2077L152.976 79.4929L152.988 79.5072L153 79.5213L154.509 78.2077ZM156.469 83.8777H158.469V83.8577L158.468 83.8377L156.469 83.8777ZM154.719 89.5477L153.076 88.4069L153.076 88.4069L154.719 89.5477ZM149.749 93.5377L150.561 95.3653L150.57 95.3612L150.579 95.3571L149.749 93.5377ZM142.469 92.9377C139.752 92.9377 137.385 92.4855 135.333 91.6237L133.784 95.3117C136.399 96.4099 139.305 96.9377 142.469 96.9377V92.9377ZM135.364 91.6371C133.296 90.7269 131.739 89.5226 130.619 88.0543L127.439 90.481C129.025 92.5595 131.155 94.1552 133.753 95.2983L135.364 91.6371ZM130.634 88.0743C129.52 86.5764 128.903 84.8755 128.785 82.9179L124.792 83.1575C124.955 85.8666 125.831 88.3189 127.424 90.4611L130.634 88.0743ZM126.789 85.0377H133.369V81.0377H126.789V85.0377ZM131.378 83.2319C131.621 85.7214 132.806 87.7808 134.814 89.3164L137.244 86.139C136.078 85.2479 135.49 84.1806 135.359 82.8435L131.378 83.2319ZM134.836 89.3332C136.901 90.8673 139.478 91.5477 142.399 91.5477V87.5477C140.092 87.5477 138.423 87.0147 137.221 86.1222L134.836 89.3332ZM142.399 91.5477C145.103 91.5477 147.496 90.9504 149.356 89.5249L146.922 86.3505C145.981 87.0716 144.548 87.5477 142.399 87.5477V91.5477ZM149.356 89.5249C151.204 88.1081 152.239 86.1885 152.239 83.8777H148.239C148.239 84.8336 147.874 85.6206 146.922 86.3505L149.356 89.5249ZM152.239 83.8777C152.239 82.7336 151.981 81.6345 151.391 80.6565C150.801 79.6791 149.948 78.9385 148.937 78.4015L147.06 81.9339C147.543 82.1902 147.81 82.4646 147.967 82.7239C148.123 82.9825 148.239 83.3418 148.239 83.8777H152.239ZM148.979 78.4245C147.252 77.4528 144.736 76.5848 141.561 75.7791L140.577 79.6563C143.655 80.4372 145.759 81.2026 147.018 81.9108L148.979 78.4245ZM141.576 75.7831C138.778 75.0491 136.536 74.3283 134.828 73.6274L133.31 77.328C135.241 78.1204 137.666 78.893 140.561 79.6523L141.576 75.7831ZM134.885 73.6521C133.381 72.9792 132.075 72.0116 130.954 70.7307L127.944 73.3647C129.436 75.0705 131.209 76.3895 133.252 77.3033L134.885 73.6521ZM130.997 70.7812C130.094 69.6786 129.559 68.1547 129.559 66.0277H125.559C125.559 68.8474 126.283 71.3367 127.901 73.3142L130.997 70.7812ZM129.559 66.0277C129.559 64.4952 130.006 63.103 130.936 61.8002L127.681 59.4752C126.278 61.439 125.559 63.6402 125.559 66.0277H129.559ZM130.936 61.8002C131.859 60.5078 133.206 59.435 135.076 58.6218L133.481 54.9536C131.058 56.0071 129.091 57.5009 127.681 59.4752L130.936 61.8002ZM135.109 58.6071C136.955 57.7643 139.115 57.3177 141.629 57.3177V53.3177C138.636 53.3177 135.895 53.8511 133.448 54.9683L135.109 58.6071ZM141.629 57.3177C145.534 57.3177 148.477 58.2991 150.649 60.0831L153.188 56.9922C150.133 54.4829 146.217 53.3177 141.629 53.3177V57.3177ZM150.649 60.0831C152.778 61.8321 153.959 64.2211 154.121 67.4576L158.116 67.2578C157.905 63.0276 156.286 59.5366 153.188 56.9922L150.649 60.0831ZM156.119 65.3577H149.749V69.3577H156.119V65.3577ZM151.744 67.2185C151.567 64.6878 150.504 62.5554 148.56 60.9755L146.037 64.0799C147.08 64.9267 147.65 66.0143 147.754 67.4969L151.744 67.2185ZM148.584 60.9953C146.678 59.397 144.214 58.7077 141.419 58.7077V62.7077C143.57 62.7077 145.026 63.2318 146.013 64.0601L148.584 60.9953ZM141.419 58.7077C138.863 58.7077 136.586 59.2544 134.786 60.5578L137.132 63.7976C138.038 63.141 139.401 62.7077 141.419 62.7077V58.7077ZM134.786 60.5578C132.945 61.8905 131.929 63.7607 131.929 66.0277H135.929C135.929 65.1214 136.265 64.4249 137.132 63.7976L134.786 60.5578ZM131.929 66.0277C131.929 67.7479 132.487 69.3045 133.665 70.5509L136.573 67.8044C136.163 67.3708 135.929 66.8275 135.929 66.0277H131.929ZM133.745 70.6317C134.781 71.61 136.017 72.3863 137.419 72.9796L138.978 69.2958C137.954 68.8624 137.136 68.3321 136.492 67.7237L133.745 70.6317ZM137.504 73.0132C138.841 73.5083 140.629 74.0623 142.845 74.6753L143.912 70.8201C141.741 70.2197 140.076 69.7004 138.893 69.2622L137.504 73.0132ZM142.855 74.678C145.558 75.411 147.698 76.1287 149.305 76.8234L150.892 73.152C149.046 72.3533 146.706 71.5777 143.902 70.8174L142.855 74.678ZM149.347 76.8412C150.767 77.4167 151.97 78.2931 152.976 79.4929L156.041 76.9225C154.621 75.2289 152.884 73.9587 150.85 73.1342L149.347 76.8412ZM153 79.5213C153.89 80.5421 154.43 81.9479 154.469 83.9177L158.468 83.8377C158.414 81.1408 157.648 78.7667 156.017 76.8941L153 79.5213ZM154.469 83.8777C154.469 85.5815 154.003 87.0713 153.076 88.4069L156.361 90.6885C157.767 88.6641 158.469 86.3739 158.469 83.8777H154.469ZM153.076 88.4069C152.144 89.749 150.789 90.8642 148.918 91.7183L150.579 95.3571C153.002 94.2512 154.96 92.7064 156.361 90.6885L153.076 88.4069ZM148.936 91.7101C147.138 92.5095 144.997 92.9377 142.469 92.9377V96.9377C145.447 96.9377 148.16 96.4325 150.561 95.3653L148.936 91.7101ZM165.671 48.4577L167.085 47.0435L167.085 47.0435L165.671 48.4577ZM165.671 42.2977L167.085 43.7119L167.085 43.7119L165.671 42.2977ZM171.691 42.2977L170.237 43.6709L170.257 43.6917L170.277 43.7119L171.691 42.2977ZM171.691 48.4577L170.277 47.0435L170.257 47.0637L170.237 47.0844L171.691 48.4577ZM171.831 55.9477H173.831V53.9477H171.831V55.9477ZM171.831 94.3077V96.3077H173.831V94.3077H171.831ZM165.461 94.3077H163.461V96.3077H165.461V94.3077ZM165.461 55.9477V53.9477H163.461V55.9477H165.461ZM168.751 47.7177C168.055 47.7177 167.541 47.4995 167.085 47.0435L164.257 49.8719C165.481 51.0959 167.02 51.7177 168.751 51.7177V47.7177ZM167.085 47.0435C166.629 46.5874 166.411 46.0733 166.411 45.3777H162.411C162.411 47.1087 163.033 48.6479 164.257 49.8719L167.085 47.0435ZM166.411 45.3777C166.411 44.6821 166.629 44.1679 167.085 43.7119L164.257 40.8835C163.033 42.1074 162.411 43.6466 162.411 45.3777H166.411ZM167.085 43.7119C167.541 43.2559 168.055 43.0377 168.751 43.0377V39.0377C167.02 39.0377 165.481 39.6595 164.257 40.8835L167.085 43.7119ZM168.751 43.0377C169.373 43.0377 169.826 43.2354 170.237 43.6709L173.145 40.9244C171.97 39.68 170.462 39.0377 168.751 39.0377V43.0377ZM170.277 43.7119C170.733 44.1679 170.951 44.6821 170.951 45.3777H174.951C174.951 43.6466 174.329 42.1074 173.105 40.8835L170.277 43.7119ZM170.951 45.3777C170.951 46.0733 170.733 46.5874 170.277 47.0435L173.105 49.8719C174.329 48.6479 174.951 47.1087 174.951 45.3777H170.951ZM170.237 47.0844C169.826 47.52 169.373 47.7177 168.751 47.7177V51.7177C170.462 51.7177 171.97 51.0754 173.145 49.8309L170.237 47.0844ZM169.831 55.9477V94.3077H173.831V55.9477H169.831ZM171.831 92.3077H165.461V96.3077H171.831V92.3077ZM167.461 94.3077V55.9477H163.461V94.3077H167.461ZM165.461 57.9477H171.831V53.9477H165.461V57.9477ZM207.187 57.4877L206.178 59.2141L206.185 59.2182L206.192 59.2222L207.187 57.4877ZM212.787 62.9477L211.037 63.9158L214.787 62.9477H212.787ZM212.787 55.9477V53.9477H210.787V55.9477H212.787ZM219.227 55.9477H221.227V53.9477H219.227V55.9477ZM216.987 104.458L215.236 103.492L215.233 103.498L215.229 103.504L216.987 104.458ZM210.547 110.898L209.584 109.145L209.577 109.149L209.571 109.152L210.547 110.898ZM188.287 109.638L187.131 111.27L187.131 111.27L188.287 109.638ZM182.337 99.9077V97.9077H180.02L180.359 100.2L182.337 99.9077ZM188.637 99.9077L190.553 99.333L190.126 97.9077H188.637V99.9077ZM192.977 105.508L194.079 103.838L194.066 103.83L194.054 103.822L192.977 105.508ZM209.427 104.388L208.028 102.959L208.021 102.966L208.013 102.973L209.427 104.388ZM212.787 87.0977H214.787V79.4627L211.044 86.1172L212.787 87.0977ZM207.187 92.6977L206.154 90.9856L207.187 92.6977ZM189.197 92.4177L188.156 94.125L188.162 94.1288L188.168 94.1327L189.197 92.4177ZM182.687 85.3477L184.46 84.4207L184.46 84.4207L182.687 85.3477ZM182.687 64.6977L184.448 65.6476L184.454 65.636L182.687 64.6977ZM189.197 57.7677L188.19 56.0401L188.183 56.0438L188.177 56.0476L189.197 57.7677ZM206.277 62.5977L205.255 64.3163L205.278 64.3305L205.303 64.3441L206.277 62.5977ZM193.257 62.5277L192.265 60.7912L192.265 60.7912L193.257 62.5277ZM188.567 67.4277L190.325 68.3827L190.325 68.3827L188.567 67.4277ZM188.567 82.6877L186.802 83.6269L186.806 83.6348L186.81 83.6427L188.567 82.6877ZM193.257 87.6577L192.235 89.3763L192.25 89.3854L192.265 89.3942L193.257 87.6577ZM206.277 87.6577L207.27 89.3942L207.276 89.3905L207.283 89.3867L206.277 87.6577ZM211.037 82.6877L212.795 83.6427L212.799 83.6348L212.803 83.6269L211.037 82.6877ZM198.507 57.3177C201.522 57.3177 204.056 57.973 206.178 59.2141L208.197 55.7613C205.372 54.1091 202.119 53.3177 198.507 53.3177V57.3177ZM206.192 59.2222C208.446 60.5165 210.027 62.09 211.037 63.9158L214.538 61.9796C213.121 59.4187 210.969 57.3522 208.183 55.7532L206.192 59.2222ZM214.787 62.9477V55.9477H210.787V62.9477H214.787ZM212.787 57.9477H219.227V53.9477H212.787V57.9477ZM217.227 55.9477V95.1477H221.227V55.9477H217.227ZM217.227 95.1477C217.227 98.3551 216.546 101.118 215.236 103.492L218.739 105.424C220.416 102.384 221.227 98.9403 221.227 95.1477H217.227ZM215.229 103.504C213.923 105.913 212.055 107.786 209.584 109.145L211.511 112.65C214.64 110.929 217.066 108.509 218.746 105.411L215.229 103.504ZM209.571 109.152C207.163 110.499 204.29 111.208 200.887 111.208V115.208C204.858 115.208 208.425 114.376 211.524 112.643L209.571 109.152ZM200.887 111.208C196.167 111.208 192.396 110.097 189.444 108.006L187.131 111.27C190.899 113.938 195.528 115.208 200.887 115.208V111.208ZM189.444 108.006C186.533 105.944 184.844 103.187 184.316 99.6154L180.359 100.2C181.045 104.842 183.322 108.571 187.131 111.27L189.444 108.006ZM182.337 101.908H188.637V97.9077H182.337V101.908ZM186.722 100.482C187.569 103.308 189.334 105.555 191.901 107.194L194.054 103.822C192.234 102.661 191.106 101.175 190.553 99.333L186.722 100.482ZM191.876 107.177C194.45 108.874 197.485 109.678 200.887 109.678V105.678C198.13 105.678 195.892 105.034 194.079 103.838L191.876 107.177ZM200.887 109.678C204.844 109.678 208.224 108.42 210.842 105.802L208.013 102.973C206.244 104.742 203.931 105.678 200.887 105.678V109.678ZM210.827 105.817C213.547 103.153 214.787 99.5015 214.787 95.1477H210.787C210.787 98.7272 209.788 101.235 208.028 102.959L210.827 105.817ZM214.787 95.1477V87.0977H210.787V95.1477H214.787ZM211.044 86.1172C209.974 88.0202 208.369 89.6482 206.154 90.9856L208.221 94.4098C210.953 92.7606 213.081 90.6552 214.531 88.0782L211.044 86.1172ZM206.154 90.9856C204.036 92.2643 201.511 92.9377 198.507 92.9377V96.9377C202.131 96.9377 205.392 96.1178 208.221 94.4098L206.154 90.9856ZM198.507 92.9377C195.447 92.9377 192.702 92.1879 190.226 90.7027L188.168 94.1327C191.293 96.0074 194.755 96.9377 198.507 96.9377V92.9377ZM190.239 90.7104C187.815 89.2311 185.889 87.153 184.46 84.4207L180.915 86.2747C182.659 89.609 185.073 92.2442 188.156 94.125L190.239 90.7104ZM184.46 84.4207C183.041 81.7092 182.307 78.5811 182.307 74.9877H178.307C178.307 79.141 179.16 82.9195 180.915 86.2747L184.46 84.4207ZM182.307 74.9877C182.307 71.3417 183.044 68.2489 184.448 65.6476L180.927 63.7478C179.158 67.0265 178.307 70.7937 178.307 74.9877H182.307ZM184.454 65.636C185.878 62.9543 187.798 60.9232 190.218 59.4878L188.177 56.0476C185.09 57.8789 182.67 60.4677 180.921 63.7594L184.454 65.636ZM190.205 59.4952C192.684 58.0496 195.436 57.3177 198.507 57.3177V53.3177C194.765 53.3177 191.311 54.2191 188.19 56.0401L190.205 59.4952ZM214.787 75.0577C214.787 71.8922 214.148 69.0321 212.795 66.5427L209.28 68.4527C210.261 70.2566 210.787 72.4365 210.787 75.0577H214.787ZM212.795 66.5427C211.459 64.0854 209.611 62.1676 207.252 60.8513L205.303 64.3441C206.958 65.2678 208.282 66.6166 209.28 68.4527L212.795 66.5427ZM207.3 60.8791C205.017 59.5201 202.491 58.8477 199.767 58.8477V62.8477C201.804 62.8477 203.618 63.342 205.255 64.3163L207.3 60.8791ZM199.767 58.8477C197.059 58.8477 194.544 59.489 192.265 60.7912L194.25 64.2642C195.891 63.3263 197.716 62.8477 199.767 62.8477V58.8477ZM192.265 60.7912C189.956 62.1107 188.139 64.0274 186.81 66.4727L190.325 68.3827C191.329 66.5346 192.639 65.1847 194.25 64.2642L192.265 60.7912ZM186.81 66.4727C185.457 68.9621 184.817 71.8222 184.817 74.9877H188.817C188.817 72.3665 189.344 70.1866 190.325 68.3827L186.81 66.4727ZM184.817 74.9877C184.817 78.1952 185.455 81.0957 186.802 83.6269L190.333 81.7485C189.346 79.893 188.817 77.6601 188.817 74.9877H184.817ZM186.81 83.6427C188.136 86.082 189.944 88.0126 192.235 89.3763L194.28 85.9391C192.651 84.9694 191.332 83.5868 190.325 81.7327L186.81 83.6427ZM192.265 89.3942C194.544 90.6963 197.059 91.3377 199.767 91.3377V87.3377C197.716 87.3377 195.891 86.859 194.25 85.9212L192.265 89.3942ZM199.767 91.3377C202.476 91.3377 204.991 90.6963 207.27 89.3942L205.285 85.9212C203.644 86.859 201.819 87.3377 199.767 87.3377V91.3377ZM207.283 89.3867C209.623 88.026 211.463 86.0937 212.795 83.6427L209.28 81.7327C208.279 83.575 206.945 84.9561 205.272 85.9287L207.283 89.3867ZM212.803 83.6269C214.147 81.1001 214.787 78.2245 214.787 75.0577H210.787C210.787 77.6776 210.261 79.8886 209.272 81.7485L212.803 83.6269ZM260.022 59.5177L258.62 60.9434L258.625 60.9492L258.631 60.9549L260.022 59.5177ZM264.362 94.3077V96.3077H266.362V94.3077H264.362ZM258.062 94.3077H256.062V96.3077H258.062V94.3077ZM255.192 63.8577L253.729 65.2211L253.737 65.2295L253.745 65.2378L255.192 63.8577ZM239.302 63.9277L237.856 62.546L237.848 62.5545L237.84 62.5631L239.302 63.9277ZM236.362 94.3077V96.3077H238.362V94.3077H236.362ZM229.992 94.3077H227.992V96.3077H229.992V94.3077ZM229.992 55.9477V53.9477H227.992V55.9477H229.992ZM236.362 55.9477H238.362V53.9477H236.362V55.9477ZM236.362 61.4077H234.362V68.2173L238.045 62.4892L236.362 61.4077ZM241.472 56.8577L240.593 55.0613L240.585 55.065L240.578 55.0688L241.472 56.8577ZM248.682 57.2477C252.909 57.2477 256.157 58.5204 258.62 60.9434L261.425 58.092C258.101 54.8217 253.789 53.2477 248.682 53.2477V57.2477ZM258.631 60.9549C261.022 63.2683 262.362 66.7381 262.362 71.6977H266.362C266.362 66.0172 264.809 61.3671 261.413 58.0805L258.631 60.9549ZM262.362 71.6977V94.3077H266.362V71.6977H262.362ZM264.362 92.3077H258.062V96.3077H264.362V92.3077ZM260.062 94.3077V72.6077H256.062V94.3077H260.062ZM260.062 72.6077C260.062 68.465 259.024 64.9782 256.64 62.4775L253.745 65.2378C255.187 66.7505 256.062 69.0971 256.062 72.6077H260.062ZM256.655 62.4942C254.295 59.9615 251.111 58.7777 247.352 58.7777V62.7777C250.22 62.7777 252.262 63.6472 253.729 65.2211L256.655 62.4942ZM247.352 58.7777C243.539 58.7777 240.3 59.9883 237.856 62.546L240.748 65.3094C242.317 63.6671 244.445 62.7777 247.352 62.7777V58.7777ZM237.84 62.5631C235.418 65.1586 234.362 68.78 234.362 73.0977H238.362C238.362 69.3887 239.267 66.8967 240.764 65.2923L237.84 62.5631ZM234.362 73.0977V94.3077H238.362V73.0977H234.362ZM236.362 92.3077H229.992V96.3077H236.362V92.3077ZM231.992 94.3077V55.9477H227.992V94.3077H231.992ZM229.992 57.9477H236.362V53.9477H229.992V57.9477ZM234.362 55.9477V61.4077H238.362V55.9477H234.362ZM238.045 62.4892C239.104 60.8409 240.531 59.5642 242.367 58.6465L240.578 55.0688C238.12 56.2978 236.14 58.0545 234.68 60.3262L238.045 62.4892ZM242.351 58.6541C244.252 57.724 246.352 57.2477 248.682 57.2477V53.2477C245.786 53.2477 243.079 53.8447 240.593 55.0613L242.351 58.6541ZM36.8283 162.068L38.5674 163.055L38.5726 163.046L36.8283 162.068ZM45.5783 153.108L44.5813 151.374L44.5719 151.379L45.5783 153.108ZM71.8983 153.738L72.9848 152.059L72.9848 152.059L71.8983 153.738ZM80.5783 164.658V166.658H83.4945L82.444 163.937L80.5783 164.658ZM72.9483 164.658L71.1315 165.494L71.6672 166.658H72.9483V164.658ZM67.0683 157.868L66.0026 159.56L66.0096 159.565L66.0166 159.569L67.0683 157.868ZM48.7983 157.868L49.8097 159.593L49.8097 159.593L48.7983 157.868ZM42.4283 164.658L44.1938 165.597L44.1999 165.586L42.4283 164.658ZM42.4283 185.098L40.6566 186.026L40.6628 186.037L42.4283 185.098ZM48.7983 191.818L49.8097 190.092L49.8097 190.092L48.7983 191.818ZM67.0683 191.888L68.1112 193.594L68.1199 193.589L67.0683 191.888ZM72.9483 185.098V183.098H71.6672L71.1315 184.261L72.9483 185.098ZM80.5783 185.098L82.4416 185.824L83.505 183.098H80.5783V185.098ZM71.8983 195.948L72.9707 197.636L72.9778 197.631L72.9848 197.627L71.8983 195.948ZM45.5783 196.578L44.5719 198.306L44.5848 198.314L44.5977 198.321L45.5783 196.578ZM36.8283 187.688L38.5674 186.7L36.8283 187.688ZM35.6083 174.878C35.6083 170.43 36.6077 166.506 38.5674 163.055L35.0891 161.08C32.7555 165.189 31.6083 169.805 31.6083 174.878H35.6083ZM38.5726 163.046C40.5498 159.522 43.2155 156.798 46.5846 154.836L44.5719 151.379C40.5677 153.711 37.4001 156.96 35.084 161.089L38.5726 163.046ZM46.5752 154.842C49.9895 152.878 53.7729 151.888 57.9683 151.888V147.888C53.1103 147.888 48.6337 149.044 44.5813 151.374L46.5752 154.842ZM57.9683 151.888C62.9528 151.888 67.2084 153.085 70.8118 155.417L72.9848 152.059C68.6548 149.257 63.6237 147.888 57.9683 147.888V151.888ZM70.8118 155.417C74.3988 157.738 77.0334 161.03 78.7125 165.378L82.444 163.937C80.4831 158.859 77.3311 154.871 72.9848 152.059L70.8118 155.417ZM80.5783 162.658H72.9483V166.658H80.5783V162.658ZM74.765 163.821C73.2598 160.551 71.0457 157.975 68.1199 156.167L66.0166 159.569C68.2242 160.934 69.9301 162.884 71.1315 165.494L74.765 163.821ZM68.1339 156.175C65.2383 154.352 61.8192 153.488 57.9683 153.488V157.488C61.2107 157.488 63.8582 158.21 66.0026 159.56L68.1339 156.175ZM57.9683 153.488C54.2375 153.488 50.8263 154.361 47.7868 156.142L49.8097 159.593C52.1836 158.202 54.8857 157.488 57.9683 157.488V153.488ZM47.7868 156.142C44.7381 157.929 42.3599 160.478 40.6566 163.73L44.1999 165.586C45.5767 162.957 47.4451 160.979 49.8097 159.593L47.7868 156.142ZM40.6628 163.718C38.9413 166.952 38.1183 170.694 38.1183 174.878H42.1183C42.1183 171.221 42.8352 168.15 44.1938 165.597L40.6628 163.718ZM38.1183 174.878C38.1183 179.02 38.9434 182.755 40.6566 186.026L44.1999 184.17C42.8332 181.56 42.1183 178.482 42.1183 174.878H38.1183ZM40.6628 186.037C42.3685 189.242 44.7464 191.761 47.7868 193.543L49.8097 190.092C47.4368 188.701 45.5681 186.74 44.1938 184.158L40.6628 186.037ZM47.7868 193.543C50.8263 195.325 54.2375 196.198 57.9683 196.198V192.198C54.8857 192.198 52.1836 191.484 49.8097 190.092L47.7868 193.543ZM57.9683 196.198C61.8086 196.198 65.2192 195.362 68.1112 193.594L66.0254 190.181C63.8773 191.494 61.2213 192.198 57.9683 192.198V196.198ZM68.1199 193.589C71.0457 191.78 73.2598 189.204 74.765 185.934L71.1315 184.261C69.9301 186.871 68.2242 188.822 66.0166 190.187L68.1199 193.589ZM72.9483 187.098H80.5783V183.098H72.9483V187.098ZM78.715 184.371C77.0378 188.672 74.4041 191.944 70.8118 194.269L72.9848 197.627C77.3258 194.818 80.4788 190.857 82.4416 185.824L78.715 184.371ZM70.8258 194.26C67.2207 196.55 62.96 197.728 57.9683 197.728V201.728C63.6166 201.728 68.6425 200.386 72.9707 197.636L70.8258 194.26ZM57.9683 197.728C53.7649 197.728 49.9756 196.757 46.5588 194.835L44.5977 198.321C48.6476 200.599 53.1183 201.728 57.9683 201.728V197.728ZM46.5846 194.849C43.2094 192.884 40.543 190.179 38.5674 186.7L35.0891 188.675C37.4069 192.757 40.5738 195.978 44.5719 198.306L46.5846 194.849ZM38.5674 186.7C36.6077 183.249 35.6083 179.325 35.6083 174.878H31.6083C31.6083 179.95 32.7555 184.566 35.0891 188.675L38.5674 186.7ZM96.4305 167.178H94.4305L98.2117 168.087L96.4305 167.178ZM101.191 162.068L100.19 160.336L100.182 160.341L100.173 160.346L101.191 162.068ZM108.821 160.248H110.821V158.248H108.821V160.248ZM108.821 166.828V168.828H110.821V166.828H108.821ZM96.4305 199.308V201.308H98.4305V199.308H96.4305ZM90.0605 199.308H88.0605V201.308H90.0605V199.308ZM90.0605 160.948V158.948H88.0605V160.948H90.0605ZM96.4305 160.948H98.4305V158.948H96.4305V160.948ZM98.2117 168.087C99.1652 166.22 100.492 164.803 102.208 163.79L100.173 160.346C97.7823 161.759 95.9358 163.749 94.6493 166.268L98.2117 168.087ZM102.191 163.799C103.924 162.798 106.104 162.248 108.821 162.248V158.248C105.563 158.248 102.657 158.91 100.19 160.336L102.191 163.799ZM106.821 160.248V166.828H110.821V160.248H106.821ZM108.821 164.828H107.141V168.828H108.821V164.828ZM107.141 164.828C103.218 164.828 99.9215 165.899 97.6374 168.377C95.3818 170.825 94.4305 174.305 94.4305 178.448H98.4305C98.4305 174.844 99.2643 172.514 100.579 171.088C101.865 169.693 103.923 168.828 107.141 168.828V164.828ZM94.4305 178.448V199.308H98.4305V178.448H94.4305ZM96.4305 197.308H90.0605V201.308H96.4305V197.308ZM92.0605 199.308V160.948H88.0605V199.308H92.0605ZM90.0605 162.948H96.4305V158.948H90.0605V162.948ZM94.4305 160.948V167.178H98.4305V160.948H94.4305ZM150.964 182.508V184.508H152.768L152.953 182.713L150.964 182.508ZM120.304 182.508V180.508H118.177L118.308 182.631L120.304 182.508ZM124.154 191.398L122.8 192.87L122.815 192.884L122.831 192.897L124.154 191.398ZM139.624 192.658L140.762 194.302L140.771 194.296L139.624 192.658ZM143.544 187.478V185.478H142.122L141.655 186.821L143.544 187.478ZM150.404 187.478L152.331 188.014L153.037 185.478H150.404V187.478ZM144.244 196.508L145.436 198.114L145.444 198.108L145.452 198.102L144.244 196.508ZM122.964 197.488L121.968 199.222L121.981 199.229L122.964 197.488ZM116.244 190.558L114.483 191.506L114.489 191.517L116.244 190.558ZM116.174 169.628L117.94 170.566L117.94 170.566L116.174 169.628ZM122.824 162.768L123.798 164.515L123.807 164.509L122.824 162.768ZM142.424 162.698L141.438 164.438L141.438 164.438L142.424 162.698ZM148.864 169.278L147.099 170.219L147.109 170.237L147.118 170.254L148.864 169.278ZM144.594 177.328V179.328H146.594V177.328H144.594ZM142.984 171.098L141.273 172.133L141.279 172.143L141.285 172.154L142.984 171.098ZM138.574 167.108L137.661 168.887L137.688 168.901L137.716 168.914L138.574 167.108ZM124.224 168.788L122.888 167.3L122.88 167.306L122.872 167.313L124.224 168.788ZM120.374 177.328L118.382 177.149L118.186 179.328H120.374V177.328ZM149.174 178.658C149.174 179.795 149.108 181.009 148.974 182.302L152.953 182.713C153.099 181.3 153.174 179.947 153.174 178.658H149.174ZM150.964 180.508H120.304V184.508H150.964V180.508ZM118.308 182.631C118.566 186.82 120.014 190.307 122.8 192.87L125.508 189.926C123.627 188.195 122.508 185.756 122.3 182.384L118.308 182.631ZM122.831 192.897C125.599 195.34 128.948 196.548 132.764 196.548V192.548C129.86 192.548 127.469 191.656 125.477 189.898L122.831 192.897ZM132.764 196.548C135.824 196.548 138.534 195.845 140.762 194.302L138.485 191.013C137.074 191.991 135.21 192.548 132.764 192.548V196.548ZM140.771 194.296C142.981 192.749 144.548 190.679 145.433 188.135L141.655 186.821C141.047 188.569 140 189.953 138.477 191.019L140.771 194.296ZM143.544 189.478H150.404V185.478H143.544V189.478ZM148.477 186.941C147.569 190.202 145.771 192.842 143.036 194.914L145.452 198.102C148.877 195.507 151.185 192.127 152.331 188.014L148.477 186.941ZM143.052 194.902C140.379 196.886 136.993 197.938 132.764 197.938V201.938C137.682 201.938 141.949 200.703 145.436 198.114L143.052 194.902ZM132.764 197.938C129.435 197.938 126.512 197.194 123.947 195.746L121.981 199.229C125.202 201.048 128.813 201.938 132.764 201.938V197.938ZM123.959 195.753C121.444 194.31 119.462 192.274 117.999 189.598L114.489 191.517C116.292 194.815 118.79 197.399 121.968 199.222L123.959 195.753ZM118.005 189.609C116.551 186.909 115.794 183.744 115.794 180.058H111.794C111.794 184.305 112.67 188.14 114.483 191.506L118.005 189.609ZM115.794 180.058C115.794 176.362 116.531 173.218 117.94 170.566L114.408 168.689C112.643 172.011 111.794 175.82 111.794 180.058H115.794ZM117.94 170.566C119.353 167.906 121.301 165.906 123.798 164.515L121.85 161.021C118.654 162.802 116.168 165.376 114.408 168.689L117.94 170.566ZM123.807 164.509C126.365 163.065 129.332 162.318 132.764 162.318V158.318C128.729 158.318 125.07 159.203 121.841 161.026L123.807 164.509ZM132.764 162.318C136.104 162.318 138.976 163.043 141.438 164.438L143.41 160.958C140.271 159.179 136.703 158.318 132.764 158.318V162.318ZM141.438 164.438C143.913 165.84 145.787 167.759 147.099 170.219L150.629 168.337C148.954 165.197 146.535 162.729 143.41 160.958L141.438 164.438ZM147.118 170.254C148.474 172.677 149.174 175.461 149.174 178.658H153.174C153.174 174.854 152.334 171.385 150.609 168.301L147.118 170.254ZM146.594 177.328C146.594 174.601 145.988 172.142 144.682 170.042L141.285 172.154C142.126 173.507 142.594 175.201 142.594 177.328H146.594ZM144.695 170.062C143.419 167.955 141.653 166.356 139.432 165.301L137.716 168.914C139.228 169.632 140.402 170.694 141.273 172.133L144.695 170.062ZM139.486 165.328C137.358 164.236 135.01 163.708 132.484 163.708V167.708C134.437 167.708 136.15 168.112 137.661 168.887L139.486 165.328ZM132.484 163.708C128.796 163.708 125.56 164.9 122.888 167.3L125.56 170.276C127.461 168.569 129.731 167.708 132.484 167.708V163.708ZM122.872 167.313C120.193 169.769 118.744 173.118 118.382 177.149L122.366 177.506C122.657 174.257 123.774 171.913 125.575 170.262L122.872 167.313ZM120.374 179.328H144.594V175.328H120.374V179.328ZM159.582 169.698L161.342 170.648L161.348 170.636L159.582 169.698ZM166.092 162.768L165.084 161.04L165.078 161.044L165.072 161.048L166.092 162.768ZM184.152 162.488L183.142 164.214L183.142 164.214L184.152 162.488ZM189.682 167.948L187.932 168.916L191.682 167.948H189.682ZM189.682 160.948V158.948H187.682V160.948H189.682ZM196.122 160.948H198.122V158.948H196.122V160.948ZM196.122 199.308V201.308H198.122V199.308H196.122ZM189.682 199.308H187.682V201.308H189.682V199.308ZM189.682 192.168H191.682V184.533L187.939 191.187L189.682 192.168ZM184.012 197.768L185.022 199.494L185.032 199.488L184.012 197.768ZM166.092 197.418L165.05 199.125L165.05 199.125L166.092 197.418ZM159.582 190.348L161.354 189.421L161.354 189.421L159.582 190.348ZM183.172 167.598L182.149 169.316L182.173 169.331L182.197 169.344L183.172 167.598ZM170.152 167.528L169.16 165.791L169.16 165.791L170.152 167.528ZM165.462 172.428L167.219 173.383L167.219 173.383L165.462 172.428ZM165.462 187.688L163.696 188.627L163.7 188.635L163.705 188.643L165.462 187.688ZM170.152 192.658L169.129 194.376L169.144 194.385L169.16 194.394L170.152 192.658ZM183.172 192.658L184.164 194.394L184.171 194.39L184.177 194.387L183.172 192.658ZM187.932 187.688L189.689 188.643L189.694 188.635L189.698 188.627L187.932 187.688ZM159.202 179.988C159.202 176.342 159.938 173.249 161.342 170.648L157.822 168.748C156.053 172.026 155.202 175.794 155.202 179.988H159.202ZM161.348 170.636C162.773 167.954 164.693 165.923 167.112 164.488L165.072 161.048C161.985 162.879 159.564 165.468 157.816 168.759L161.348 170.636ZM167.1 164.495C169.578 163.05 172.331 162.318 175.402 162.318V158.318C171.66 158.318 168.206 159.219 165.084 161.04L167.1 164.495ZM175.402 162.318C178.469 162.318 181.025 162.975 183.142 164.214L185.162 160.761C182.333 159.107 179.055 158.318 175.402 158.318V162.318ZM183.142 164.214C185.35 165.506 186.916 167.08 187.932 168.916L191.432 166.98C190.021 164.429 187.9 162.363 185.162 160.761L183.142 164.214ZM191.682 167.948V160.948H187.682V167.948H191.682ZM189.682 162.948H196.122V158.948H189.682V162.948ZM194.122 160.948V199.308H198.122V160.948H194.122ZM196.122 197.308H189.682V201.308H196.122V197.308ZM191.682 199.308V192.168H187.682V199.308H191.682ZM187.939 191.187C186.874 193.081 185.253 194.707 182.992 196.047L185.032 199.488C187.811 197.841 189.97 195.735 191.425 193.148L187.939 191.187ZM183.002 196.041C180.88 197.282 178.347 197.938 175.332 197.938V201.938C178.944 201.938 182.197 201.146 185.022 199.494L183.002 196.041ZM175.332 197.938C172.271 197.938 169.555 197.188 167.134 195.71L165.05 199.125C168.135 201.007 171.579 201.938 175.332 201.938V197.938ZM167.134 195.71C164.709 194.231 162.783 192.153 161.354 189.421L157.81 191.275C159.554 194.609 161.968 197.244 165.05 199.125L167.134 195.71ZM161.354 189.421C159.936 186.709 159.202 183.581 159.202 179.988H155.202C155.202 184.141 156.055 187.92 157.81 191.275L161.354 189.421ZM191.682 180.058C191.682 176.892 191.042 174.032 189.689 171.543L186.175 173.453C187.155 175.257 187.682 177.437 187.682 180.058H191.682ZM189.689 171.543C188.354 169.085 186.505 167.168 184.147 165.851L182.197 169.344C183.852 170.268 185.177 171.617 186.175 173.453L189.689 171.543ZM184.195 165.879C181.912 164.52 179.386 163.848 176.662 163.848V167.848C178.698 167.848 180.512 168.342 182.149 169.316L184.195 165.879ZM176.662 163.848C173.954 163.848 171.439 164.489 169.16 165.791L171.144 169.264C172.786 168.326 174.61 167.848 176.662 167.848V163.848ZM169.16 165.791C166.851 167.111 165.034 169.027 163.705 171.473L167.219 173.383C168.224 171.535 169.533 170.185 171.144 169.264L169.16 165.791ZM163.705 171.473C162.352 173.962 161.712 176.822 161.712 179.988H165.712C165.712 177.367 166.239 175.187 167.219 173.383L163.705 171.473ZM161.712 179.988C161.712 183.195 162.35 186.096 163.696 188.627L167.228 186.748C166.241 184.893 165.712 182.66 165.712 179.988H161.712ZM163.705 188.643C165.03 191.082 166.838 193.013 169.129 194.376L171.175 190.939C169.546 189.969 168.227 188.587 167.219 186.733L163.705 188.643ZM169.16 194.394C171.439 195.696 173.954 196.338 176.662 196.338V192.338C174.61 192.338 172.786 191.859 171.144 190.921L169.16 194.394ZM176.662 196.338C179.37 196.338 181.886 195.696 184.164 194.394L182.18 190.921C180.539 191.859 178.714 192.338 176.662 192.338V196.338ZM184.177 194.387C186.518 193.026 188.357 191.094 189.689 188.643L186.175 186.733C185.174 188.575 183.84 189.956 182.167 190.929L184.177 194.387ZM189.698 188.627C191.042 186.1 191.682 183.224 191.682 180.058H187.682C187.682 182.678 187.156 184.889 186.166 186.748L189.698 188.627ZM214.657 166.198V164.198H212.657V166.198H214.657ZM215.847 192.798L214.432 194.212L214.454 194.233L214.476 194.254L215.847 192.798ZM224.667 193.918H226.667V191.918H224.667V193.918ZM224.667 199.308V201.308H226.667V199.308H224.667ZM210.947 196.858L209.592 198.329L210.947 196.858ZM208.287 166.198H210.287V164.198H208.287V166.198ZM203.317 166.198H201.317V168.198H203.317V166.198ZM203.317 160.948V158.948H201.317V160.948H203.317ZM208.287 160.948V162.948H210.287V160.948H208.287ZM208.287 151.288V149.288H206.287V151.288H208.287ZM214.657 151.288H216.657V149.288H214.657V151.288ZM214.657 160.948H212.657V162.948H214.657V160.948ZM224.667 160.948H226.667V158.948H224.667V160.948ZM224.667 166.198V168.198H226.667V166.198H224.667ZM212.657 166.198V188.808H216.657V166.198H212.657ZM212.657 188.808C212.657 190.872 213.081 192.86 214.432 194.212L217.261 191.383C217.026 191.149 216.657 190.477 216.657 188.808H212.657ZM214.476 194.254C215.842 195.54 217.876 195.918 219.977 195.918V191.918C218.158 191.918 217.438 191.549 217.217 191.341L214.476 194.254ZM219.977 195.918H224.667V191.918H219.977V195.918ZM222.667 193.918V199.308H226.667V193.918H222.667ZM224.667 197.308H218.927V201.308H224.667V197.308ZM218.927 197.308C215.649 197.308 213.564 196.55 212.302 195.387L209.592 198.329C211.876 200.432 215.111 201.308 218.927 201.308V197.308ZM212.302 195.387C211.119 194.297 210.287 192.285 210.287 188.808H206.287C206.287 192.797 207.228 196.151 209.592 198.329L212.302 195.387ZM210.287 188.808V166.198H206.287V188.808H210.287ZM208.287 164.198H203.317V168.198H208.287V164.198ZM205.317 166.198V160.948H201.317V166.198H205.317ZM203.317 162.948H208.287V158.948H203.317V162.948ZM210.287 160.948V151.288H206.287V160.948H210.287ZM208.287 153.288H214.657V149.288H208.287V153.288ZM212.657 151.288V160.948H216.657V151.288H212.657ZM214.657 162.948H224.667V158.948H214.657V162.948ZM222.667 160.948V166.198H226.667V160.948H222.667ZM224.667 164.198H214.657V168.198H224.667V164.198ZM267.175 182.508V184.508H268.979L269.164 182.713L267.175 182.508ZM236.515 182.508V180.508H234.387L234.519 182.631L236.515 182.508ZM240.365 191.398L239.011 192.87L239.026 192.884L239.042 192.897L240.365 191.398ZM255.835 192.658L256.973 194.302L256.982 194.296L255.835 192.658ZM259.755 187.478V185.478H258.333L257.866 186.821L259.755 187.478ZM266.615 187.478L268.541 188.014L269.248 185.478H266.615V187.478ZM260.455 196.508L261.647 198.114L261.655 198.108L261.662 198.102L260.455 196.508ZM239.175 197.488L238.179 199.222L238.192 199.229L239.175 197.488ZM232.455 190.558L230.694 191.506L230.7 191.517L232.455 190.558ZM232.385 169.628L234.151 170.566L234.151 170.566L232.385 169.628ZM239.035 162.768L240.008 164.515L240.018 164.509L239.035 162.768ZM258.635 162.698L257.649 164.438L257.649 164.438L258.635 162.698ZM265.075 169.278L263.31 170.219L263.319 170.237L263.329 170.254L265.075 169.278ZM260.805 177.328V179.328H262.805V177.328H260.805ZM259.195 171.098L257.484 172.133L257.49 172.143L257.496 172.154L259.195 171.098ZM254.785 167.108L253.872 168.887L253.899 168.901L253.927 168.914L254.785 167.108ZM240.435 168.788L239.099 167.3L239.091 167.306L239.083 167.313L240.435 168.788ZM236.585 177.328L234.593 177.149L234.397 179.328H236.585V177.328ZM265.385 178.658C265.385 179.795 265.319 181.009 265.185 182.302L269.164 182.713C269.31 181.3 269.385 179.947 269.385 178.658H265.385ZM267.175 180.508H236.515V184.508H267.175V180.508ZM234.519 182.631C234.777 186.82 236.225 190.307 239.011 192.87L241.719 189.926C239.838 188.195 238.719 185.756 238.511 182.384L234.519 182.631ZM239.042 192.897C241.81 195.34 245.159 196.548 248.975 196.548V192.548C246.071 192.548 243.68 191.656 241.688 189.898L239.042 192.897ZM248.975 196.548C252.035 196.548 254.745 195.845 256.973 194.302L254.696 191.013C253.285 191.991 251.421 192.548 248.975 192.548V196.548ZM256.982 194.296C259.192 192.749 260.759 190.679 261.644 188.135L257.866 186.821C257.258 188.569 256.211 189.953 254.688 191.019L256.982 194.296ZM259.755 189.478H266.615V185.478H259.755V189.478ZM264.688 186.941C263.78 190.202 261.982 192.842 259.247 194.914L261.662 198.102C265.088 195.507 267.396 192.127 268.541 188.014L264.688 186.941ZM259.263 194.902C256.59 196.886 253.204 197.938 248.975 197.938V201.938C253.893 201.938 258.16 200.703 261.647 198.114L259.263 194.902ZM248.975 197.938C245.645 197.938 242.723 197.194 240.158 195.746L238.192 199.229C241.413 201.048 245.024 201.938 248.975 201.938V197.938ZM240.17 195.753C237.655 194.31 235.673 192.274 234.209 189.598L230.7 191.517C232.503 194.815 235.001 197.399 238.179 199.222L240.17 195.753ZM234.216 189.609C232.762 186.909 232.005 183.744 232.005 180.058H228.005C228.005 184.305 228.881 188.14 230.694 191.506L234.216 189.609ZM232.005 180.058C232.005 176.362 232.742 173.218 234.151 170.566L230.619 168.689C228.854 172.011 228.005 175.82 228.005 180.058H232.005ZM234.151 170.566C235.564 167.906 237.512 165.906 240.008 164.515L238.061 161.021C234.865 162.802 232.379 165.376 230.619 168.689L234.151 170.566ZM240.018 164.509C242.576 163.065 245.543 162.318 248.975 162.318V158.318C244.94 158.318 241.281 159.203 238.052 161.026L240.018 164.509ZM248.975 162.318C252.315 162.318 255.187 163.043 257.649 164.438L259.621 160.958C256.482 159.179 252.914 158.318 248.975 158.318V162.318ZM257.649 164.438C260.124 165.84 261.998 167.759 263.31 170.219L266.839 168.337C265.165 165.197 262.746 162.729 259.621 160.958L257.649 164.438ZM263.329 170.254C264.685 172.677 265.385 175.461 265.385 178.658H269.385C269.385 174.854 268.545 171.385 266.82 168.301L263.329 170.254ZM262.805 177.328C262.805 174.601 262.199 172.142 260.893 170.042L257.496 172.154C258.337 173.507 258.805 175.201 258.805 177.328H262.805ZM260.906 170.062C259.63 167.955 257.864 166.356 255.643 165.301L253.927 168.914C255.439 169.632 256.612 170.694 257.484 172.133L260.906 170.062ZM255.697 165.328C253.569 164.236 251.221 163.708 248.695 163.708V167.708C250.648 167.708 252.361 168.112 253.872 168.887L255.697 165.328ZM248.695 163.708C245.007 163.708 241.771 164.9 239.099 167.3L241.771 170.276C243.672 168.569 245.942 167.708 248.695 167.708V163.708ZM239.083 167.313C236.404 169.769 234.954 173.118 234.593 177.149L238.577 177.506C238.868 174.257 239.985 171.913 241.786 170.262L239.083 167.313ZM236.585 179.328H260.805V175.328H236.585V179.328ZM331.905 199.308L330.483 200.714L331.07 201.308H331.905V199.308ZM325.535 192.868L326.957 191.461L325.515 190.004L324.094 191.481L325.535 192.868ZM317.905 198.398L318.697 200.234L318.71 200.229L318.723 200.223L317.905 198.398ZM299.775 198.328L298.92 200.136L298.933 200.142L299.775 198.328ZM293.755 193.148L292.059 194.208L292.067 194.22L292.075 194.233L293.755 193.148ZM294.525 176.348L292.925 175.148L292.922 175.152L294.525 176.348ZM303.135 170.188L303.87 172.048L306.456 171.026L304.665 168.899L303.135 170.188ZM299.915 165.288L298.083 166.089L298.083 166.089L299.915 165.288ZM300.475 154.858L298.79 153.781L298.786 153.787L298.782 153.793L300.475 154.858ZM305.025 150.938L304.165 149.132L304.165 149.132L305.025 150.938ZM318.395 151.008L319.325 149.237L319.325 149.237L318.395 151.008ZM322.595 155.138L320.825 156.069L320.83 156.079L320.836 156.089L322.595 155.138ZM323.855 160.948V162.948H325.77L325.853 161.035L323.855 160.948ZM317.485 160.948L315.486 160.899L315.436 162.948H317.485V160.948ZM315.875 156.468L314.461 157.882L314.476 157.897L314.491 157.912L315.875 156.468ZM306.985 156.398L308.337 157.872L308.339 157.87L306.985 156.398ZM306.425 164.448L304.689 165.44L304.702 165.463L304.715 165.486L306.425 164.448ZM310.345 169.278L308.896 170.656L308.912 170.672L308.927 170.689L310.345 169.278ZM324.905 183.908L323.487 185.319L325.242 187.082L326.587 184.989L324.905 183.908ZM326.165 181.948L327.847 183.029L327.866 183.001L327.883 182.972L326.165 181.948ZM330.925 173.968V171.968H329.789L329.207 172.943L330.925 173.968ZM337.785 173.968L339.517 174.968L341.25 171.968H337.785V173.968ZM332.045 183.908L330.313 182.908L330.309 182.915L330.305 182.922L332.045 183.908ZM329.245 188.318L327.604 187.174L326.647 188.548L327.831 189.732L329.245 188.318ZM340.235 199.308V201.308H345.063L341.649 197.893L340.235 199.308ZM315.525 193.218L314.664 191.413L314.655 191.417L314.647 191.421L315.525 193.218ZM321.335 188.668L322.832 189.994L324.078 188.588L322.753 187.257L321.335 188.668ZM306.985 174.248L308.403 172.837L307.485 171.915L306.27 172.38L306.985 174.248ZM300.965 191.958L299.604 193.423L299.613 193.431L299.621 193.439L300.965 191.958ZM333.327 197.901L326.957 191.461L324.113 194.274L330.483 200.714L333.327 197.901ZM324.094 191.481C321.864 193.798 319.526 195.479 317.087 196.573L318.723 200.223C321.697 198.889 324.446 196.884 326.976 194.254L324.094 191.481ZM317.113 196.561C314.693 197.604 311.912 198.148 308.735 198.148V202.148C312.372 202.148 315.704 201.524 318.697 200.234L317.113 196.561ZM308.735 198.148C305.618 198.148 302.926 197.586 300.617 196.514L298.933 200.142C301.85 201.496 305.132 202.148 308.735 202.148V198.148ZM300.63 196.52C298.378 195.455 296.666 193.969 295.435 192.063L292.075 194.233C293.737 196.806 296.039 198.774 298.92 200.136L300.63 196.52ZM295.451 192.088C294.275 190.206 293.655 187.97 293.655 185.308H289.655C289.655 188.619 290.435 191.61 292.059 194.208L295.451 192.088ZM293.655 185.308C293.655 182.302 294.49 179.741 296.129 177.543L292.922 175.152C290.734 178.087 289.655 181.5 289.655 185.308H293.655ZM296.125 177.548C297.815 175.295 300.35 173.438 303.87 172.048L302.4 168.328C298.36 169.924 295.155 172.174 292.925 175.148L296.125 177.548ZM304.665 168.899C303.248 167.216 302.299 165.747 301.747 164.486L298.083 166.089C298.838 167.815 300.036 169.612 301.605 171.476L304.665 168.899ZM301.747 164.486C301.214 163.267 300.935 161.91 300.935 160.388H296.935C296.935 162.412 297.309 164.322 298.083 166.089L301.747 164.486ZM300.935 160.388C300.935 158.686 301.355 157.216 302.168 155.922L298.782 153.793C297.542 155.766 296.935 157.983 296.935 160.388H300.935ZM302.16 155.934C303.014 154.598 304.232 153.531 305.885 152.743L304.165 149.132C301.898 150.211 300.082 151.758 298.79 153.781L302.16 155.934ZM305.885 152.743C307.532 151.959 309.492 151.538 311.815 151.538V147.538C309.005 147.538 306.438 148.049 304.165 149.132L305.885 152.743ZM311.815 151.538C314.074 151.538 315.936 151.976 317.465 152.778L319.325 149.237C317.12 148.08 314.596 147.538 311.815 147.538V151.538ZM317.465 152.778C318.993 153.581 320.091 154.673 320.825 156.069L324.365 154.206C323.233 152.055 321.53 150.395 319.325 149.237L317.465 152.778ZM320.836 156.089C321.581 157.468 321.936 159.04 321.857 160.861L325.853 161.035C325.961 158.562 325.476 156.261 324.354 154.187L320.836 156.089ZM323.855 158.948H317.485V162.948H323.855V158.948ZM319.484 160.996C319.541 158.663 318.877 156.574 317.259 155.024L314.491 157.912C315.113 158.508 315.522 159.406 315.486 160.899L319.484 160.996ZM317.289 155.053C315.748 153.512 313.769 152.788 311.535 152.788V156.788C312.847 156.788 313.762 157.183 314.461 157.882L317.289 155.053ZM311.535 152.788C309.261 152.788 307.231 153.454 305.631 154.926L308.339 157.87C309.072 157.195 310.075 156.788 311.535 156.788V152.788ZM305.634 154.923C304.067 156.36 303.305 158.241 303.305 160.388H307.305C307.305 159.268 307.663 158.489 308.337 157.872L305.634 154.923ZM303.305 160.388C303.305 162.162 303.783 163.855 304.689 165.44L308.162 163.455C307.574 162.428 307.305 161.414 307.305 160.388H303.305ZM304.715 165.486C305.618 166.972 307.037 168.702 308.896 170.656L311.794 167.899C310.013 166.026 308.819 164.537 308.135 163.41L304.715 165.486ZM308.927 170.689L323.487 185.319L326.323 182.497L311.763 167.867L308.927 170.689ZM326.587 184.989L327.847 183.029L324.483 180.866L323.223 182.826L326.587 184.989ZM327.883 182.972L332.643 174.992L329.207 172.943L324.447 180.923L327.883 182.972ZM330.925 175.968H337.785V171.968H330.925V175.968ZM336.053 172.968L330.313 182.908L333.777 184.908L339.517 174.968L336.053 172.968ZM330.305 182.922C329.547 184.26 328.648 185.677 327.604 187.174L330.886 189.461C331.989 187.878 332.957 186.356 333.785 184.894L330.305 182.922ZM327.831 189.732L338.821 200.722L341.649 197.893L330.659 186.903L327.831 189.732ZM340.235 197.308H331.905V201.308H340.235V197.308ZM308.735 196.688C311.52 196.688 314.089 196.145 316.403 195.015L314.647 191.421C312.947 192.251 310.99 192.688 308.735 192.688V196.688ZM316.387 195.023C318.726 193.906 320.87 192.208 322.832 189.994L319.838 187.341C318.16 189.234 316.431 190.569 314.664 191.413L316.387 195.023ZM322.753 187.257L308.403 172.837L305.567 175.658L319.917 190.078L322.753 187.257ZM306.27 172.38C303.073 173.604 300.502 175.248 298.723 177.402C296.917 179.589 296.025 182.187 296.025 185.098H300.025C300.025 183.062 300.627 181.378 301.807 179.949C303.015 178.486 304.924 177.178 307.7 176.116L306.27 172.38ZM296.025 185.098C296.025 188.389 297.223 191.212 299.604 193.423L302.326 190.492C300.787 189.063 300.025 187.313 300.025 185.098H296.025ZM299.621 193.439C302.058 195.649 305.155 196.688 308.735 196.688V192.688C305.968 192.688 303.886 191.906 302.309 190.476L299.621 193.439ZM64.9683 258.528L64.0483 260.304L64.061 260.31L64.0738 260.317L64.9683 258.528ZM73.9283 266.998L72.181 267.971L72.1857 267.979L72.1904 267.988L73.9283 266.998ZM73.9283 293.038L72.1904 292.048L72.1863 292.055L73.9283 293.038ZM64.9683 301.438L65.8541 303.231L65.8627 303.227L64.9683 301.438ZM35.9883 304.308H33.9883V306.308H35.9883V304.308ZM35.9883 255.518V253.518H33.9883V255.518H35.9883ZM65.5983 294.088L67.0125 295.502L67.0223 295.492L65.5983 294.088ZM65.5283 265.808L64.0945 267.202L64.1043 267.212L65.5283 265.808ZM42.3583 260.698V258.698H40.3583V260.698H42.3583ZM42.3583 299.058H40.3583V301.058H42.3583V299.058ZM51.1783 257.518C56.2475 257.518 60.515 258.473 64.0483 260.304L65.8883 256.752C61.6748 254.569 56.7491 253.518 51.1783 253.518V257.518ZM64.0738 260.317C67.6487 262.104 70.3313 264.65 72.181 267.971L75.6755 266.025C73.4186 261.972 70.1278 258.871 65.8627 256.739L64.0738 260.317ZM72.1904 267.988C74.0904 271.323 75.0783 275.31 75.0783 280.018H79.0783C79.0783 274.739 77.9661 270.046 75.6661 266.008L72.1904 267.988ZM75.0783 280.018C75.0783 284.726 74.0904 288.712 72.1904 292.048L75.6661 294.028C77.9661 289.99 79.0783 285.296 79.0783 280.018H75.0783ZM72.1863 292.055C70.3387 295.33 67.6556 297.858 64.0738 299.649L65.8627 303.227C70.1209 301.097 73.4112 298.025 75.6702 294.02L72.1863 292.055ZM64.0825 299.645C60.541 301.394 56.2608 302.308 51.1783 302.308V306.308C56.7357 306.308 61.6489 305.308 65.854 303.231L64.0825 299.645ZM51.1783 302.308H35.9883V306.308H51.1783V302.308ZM37.9883 304.308V255.518H33.9883V304.308H37.9883ZM35.9883 257.518H51.1783V253.518H35.9883V257.518ZM51.1783 301.058C57.8205 301.058 63.2092 299.305 67.0125 295.502L64.1841 292.673C61.3607 295.497 57.1361 297.058 51.1783 297.058V301.058ZM67.0223 295.492C70.7991 291.662 72.5683 286.412 72.5683 280.018H68.5683C68.5683 285.664 67.0241 289.793 64.1742 292.683L67.0223 295.492ZM72.5683 280.018C72.5683 273.573 70.7735 268.278 66.9522 264.403L64.1043 267.212C67.003 270.151 68.5683 274.329 68.5683 280.018H72.5683ZM66.962 264.413C63.1639 260.508 57.7938 258.698 51.1783 258.698V262.698C57.0694 262.698 61.2659 264.294 64.0946 267.202L66.962 264.413ZM51.1783 258.698H42.3583V262.698H51.1783V258.698ZM40.3583 260.698V299.058H44.3583V260.698H40.3583ZM42.3583 301.058H51.1783V297.058H42.3583V301.058ZM120.27 287.508V289.508H122.074L122.26 287.713L120.27 287.508ZM89.6105 287.508V285.508H87.4832L87.6143 287.631L89.6105 287.508ZM93.4605 296.398L92.1063 297.87L92.1216 297.884L92.1372 297.897L93.4605 296.398ZM108.93 297.658L110.069 299.302L110.077 299.296L108.93 297.658ZM112.85 292.478V290.478H111.429L110.961 291.821L112.85 292.478ZM119.71 292.478L121.637 293.014L122.344 290.478H119.71V292.478ZM113.55 301.508L114.743 303.114L114.75 303.108L114.758 303.102L113.55 301.508ZM92.2705 302.488L91.2751 304.222L91.2873 304.229L92.2705 302.488ZM85.5505 295.558L83.7895 296.506L83.7957 296.517L85.5505 295.558ZM85.4805 274.628L87.2467 275.566L87.2467 275.566L85.4805 274.628ZM92.1305 267.768L93.1042 269.515L93.1136 269.509L92.1305 267.768ZM111.73 267.698L110.744 269.438L110.744 269.438L111.73 267.698ZM118.17 274.278L116.406 275.219L116.415 275.237L116.425 275.254L118.17 274.278ZM113.9 282.328V284.328H115.9V282.328H113.9ZM112.29 276.098L110.579 277.133L110.586 277.143L110.592 277.154L112.29 276.098ZM107.88 272.108L106.968 273.887L106.995 273.901L107.022 273.914L107.88 272.108ZM93.5305 273.788L92.1942 272.3L92.1866 272.306L92.179 272.313L93.5305 273.788ZM89.6805 282.328L87.6885 282.149L87.4929 284.328H89.6805V282.328ZM118.48 283.658C118.48 284.795 118.415 286.009 118.281 287.302L122.26 287.713C122.406 286.3 122.48 284.947 122.48 283.658H118.48ZM120.27 285.508H89.6105V289.508H120.27V285.508ZM87.6143 287.631C87.8728 291.82 89.3208 295.307 92.1063 297.87L94.8146 294.926C92.9335 293.195 91.8148 290.756 91.6067 287.384L87.6143 287.631ZM92.1372 297.897C94.9053 300.34 98.2543 301.548 102.07 301.548V297.548C99.1666 297.548 96.7756 296.656 94.7837 294.898L92.1372 297.897ZM102.07 301.548C105.131 301.548 107.841 300.845 110.069 299.302L107.792 296.013C106.38 296.991 104.517 297.548 102.07 297.548V301.548ZM110.077 299.296C112.287 297.749 113.854 295.679 114.739 293.135L110.961 291.821C110.353 293.569 109.307 294.953 107.784 296.019L110.077 299.296ZM112.85 294.478H119.71V290.478H112.85V294.478ZM117.784 291.941C116.876 295.202 115.077 297.842 112.343 299.914L114.758 303.102C118.183 300.507 120.492 297.127 121.637 293.014L117.784 291.941ZM112.358 299.902C109.686 301.886 106.299 302.938 102.07 302.938V306.938C106.988 306.938 111.255 305.703 114.743 303.114L112.358 299.902ZM102.07 302.938C98.7412 302.938 95.8189 302.194 93.2536 300.746L91.2873 304.229C94.5087 306.048 98.1197 306.938 102.07 306.938V302.938ZM93.2658 300.753C90.7511 299.31 88.7686 297.274 87.3052 294.598L83.7957 296.517C85.599 299.815 88.0965 302.399 91.2751 304.222L93.2658 300.753ZM87.3114 294.609C85.8573 291.909 85.1005 288.744 85.1005 285.058H81.1005C81.1005 289.305 81.9769 293.14 83.7895 296.506L87.3114 294.609ZM85.1005 285.058C85.1005 281.362 85.8381 278.218 87.2467 275.566L83.7142 273.689C81.9495 277.011 81.1005 280.82 81.1005 285.058H85.1005ZM87.2467 275.566C88.6598 272.906 90.6072 270.906 93.1042 269.515L91.1567 266.021C87.9604 267.802 85.4745 270.376 83.7142 273.689L87.2467 275.566ZM93.1136 269.509C95.6713 268.065 98.6382 267.318 102.07 267.318V263.318C98.036 263.318 94.3763 264.203 91.1473 266.026L93.1136 269.509ZM102.07 267.318C105.411 267.318 108.283 268.043 110.744 269.438L112.716 265.958C109.578 264.179 106.01 263.318 102.07 263.318V267.318ZM110.744 269.438C113.219 270.84 115.094 272.759 116.406 275.219L119.935 273.337C118.261 270.197 115.842 267.729 112.716 265.958L110.744 269.438ZM116.425 275.254C117.78 277.677 118.48 280.461 118.48 283.658H122.48C122.48 279.854 121.641 276.385 119.916 273.301L116.425 275.254ZM115.9 282.328C115.9 279.601 115.295 277.142 113.989 275.042L110.592 277.154C111.433 278.507 111.9 280.201 111.9 282.328H115.9ZM114.001 275.062C112.726 272.955 110.96 271.356 108.739 270.301L107.022 273.914C108.534 274.632 109.708 275.694 110.579 277.133L114.001 275.062ZM108.793 270.328C106.665 269.236 104.317 268.708 101.79 268.708V272.708C103.744 272.708 105.456 273.112 106.968 273.887L108.793 270.328ZM101.79 268.708C98.103 268.708 94.8667 269.9 92.1942 272.3L94.8667 275.276C96.7676 273.569 99.038 272.708 101.79 272.708V268.708ZM92.179 272.313C89.4998 274.769 88.0502 278.118 87.6885 282.149L91.6724 282.506C91.9641 279.257 93.0811 276.913 94.8819 275.262L92.179 272.313ZM89.6805 284.328H113.9V280.328H89.6805V284.328ZM143.169 298.428L141.292 299.119L143.174 304.226L145.047 299.116L143.169 298.428ZM155.069 265.948V263.948H153.671L153.191 265.26L155.069 265.948ZM161.859 265.948L163.72 266.678L164.792 263.948H161.859V265.948ZM146.809 304.308V306.308H148.172L148.67 305.038L146.809 304.308ZM139.389 304.308L137.527 305.038L138.025 306.308H139.389V304.308ZM124.339 265.948V263.948H121.406L122.477 266.678L124.339 265.948ZM131.199 265.948L133.075 265.256L132.593 263.948H131.199V265.948ZM145.047 299.116L156.947 266.636L153.191 265.26L141.291 297.74L145.047 299.116ZM155.069 267.948H161.859V263.948H155.069V267.948ZM159.997 265.217L144.947 303.577L148.67 305.038L163.72 266.678L159.997 265.217ZM146.809 302.308H139.389V306.308H146.809V302.308ZM141.25 303.577L126.2 265.217L122.477 266.678L137.527 305.038L141.25 303.577ZM124.339 267.948H131.199V263.948H124.339V267.948ZM129.322 266.639L141.292 299.119L145.045 297.736L133.075 265.256L129.322 266.639ZM202.917 287.508V289.508H204.721L204.906 287.713L202.917 287.508ZM172.257 287.508V285.508H170.13L170.261 287.631L172.257 287.508ZM176.107 296.398L174.753 297.87L174.768 297.884L174.784 297.897L176.107 296.398ZM191.577 297.658L192.715 299.302L192.724 299.296L191.577 297.658ZM195.497 292.478V290.478H194.075L193.608 291.821L195.497 292.478ZM202.357 292.478L204.284 293.014L204.99 290.478H202.357V292.478ZM196.197 301.508L197.389 303.114L197.397 303.108L197.405 303.102L196.197 301.508ZM174.917 302.488L173.922 304.222L173.934 304.229L174.917 302.488ZM168.197 295.558L166.436 296.506L166.442 296.517L168.197 295.558ZM168.127 274.628L169.893 275.566L169.893 275.566L168.127 274.628ZM174.777 267.768L175.751 269.515L175.76 269.509L174.777 267.768ZM194.377 267.698L193.391 269.438L193.391 269.438L194.377 267.698ZM200.817 274.278L199.052 275.219L199.062 275.237L199.071 275.254L200.817 274.278ZM196.547 282.328V284.328H198.547V282.328H196.547ZM194.937 276.098L193.226 277.133L193.232 277.143L193.238 277.154L194.937 276.098ZM190.527 272.108L189.614 273.887L189.641 273.901L189.669 273.914L190.527 272.108ZM176.177 273.788L174.841 272.3L174.833 272.306L174.825 272.313L176.177 273.788ZM172.327 282.328L170.335 282.149L170.139 284.328H172.327V282.328ZM201.127 283.658C201.127 284.795 201.061 286.009 200.928 287.302L204.906 287.713C205.053 286.3 205.127 284.947 205.127 283.658H201.127ZM202.917 285.508H172.257V289.508H202.917V285.508ZM170.261 287.631C170.519 291.82 171.967 295.307 174.753 297.87L177.461 294.926C175.58 293.195 174.461 290.756 174.253 287.384L170.261 287.631ZM174.784 297.897C177.552 300.34 180.901 301.548 184.717 301.548V297.548C181.813 297.548 179.422 296.656 177.43 294.898L174.784 297.897ZM184.717 301.548C187.777 301.548 190.487 300.845 192.715 299.302L190.439 296.013C189.027 296.991 187.163 297.548 184.717 297.548V301.548ZM192.724 299.296C194.934 297.749 196.501 295.679 197.386 293.135L193.608 291.821C193 293.569 191.953 294.953 190.43 296.019L192.724 299.296ZM195.497 294.478H202.357V290.478H195.497V294.478ZM200.43 291.941C199.522 295.202 197.724 297.842 194.989 299.914L197.405 303.102C200.83 300.507 203.138 297.127 204.284 293.014L200.43 291.941ZM195.005 299.902C192.332 301.886 188.946 302.938 184.717 302.938V306.938C189.635 306.938 193.902 305.703 197.389 303.114L195.005 299.902ZM184.717 302.938C181.388 302.938 178.465 302.194 175.9 300.746L173.934 304.229C177.155 306.048 180.766 306.938 184.717 306.938V302.938ZM175.912 300.753C173.398 299.31 171.415 297.274 169.952 294.598L166.442 296.517C168.245 299.815 170.743 302.399 173.922 304.222L175.912 300.753ZM169.958 294.609C168.504 291.909 167.747 288.744 167.747 285.058H163.747C163.747 289.305 164.623 293.14 166.436 296.506L169.958 294.609ZM167.747 285.058C167.747 281.362 168.485 278.218 169.893 275.566L166.361 273.689C164.596 277.011 163.747 280.82 163.747 285.058H167.747ZM169.893 275.566C171.306 272.906 173.254 270.906 175.751 269.515L173.803 266.021C170.607 267.802 168.121 270.376 166.361 273.689L169.893 275.566ZM175.76 269.509C178.318 268.065 181.285 267.318 184.717 267.318V263.318C180.683 263.318 177.023 264.203 173.794 266.026L175.76 269.509ZM184.717 267.318C188.057 267.318 190.929 268.043 193.391 269.438L195.363 265.958C192.225 264.179 188.656 263.318 184.717 263.318V267.318ZM193.391 269.438C195.866 270.84 197.74 272.759 199.052 275.219L202.582 273.337C200.907 270.197 198.488 267.729 195.363 265.958L193.391 269.438ZM199.071 275.254C200.427 277.677 201.127 280.461 201.127 283.658H205.127C205.127 279.854 204.287 276.385 202.562 273.301L199.071 275.254ZM198.547 282.328C198.547 279.601 197.941 277.142 196.636 275.042L193.238 277.154C194.079 278.507 194.547 280.201 194.547 282.328H198.547ZM196.648 275.062C195.373 272.955 193.606 271.356 191.385 270.301L189.669 273.914C191.181 274.632 192.355 275.694 193.226 277.133L196.648 275.062ZM191.44 270.328C189.311 269.236 186.964 268.708 184.437 268.708V272.708C186.39 272.708 188.103 273.112 189.614 273.887L191.44 270.328ZM184.437 268.708C180.749 268.708 177.513 269.9 174.841 272.3L177.513 275.276C179.414 273.569 181.684 272.708 184.437 272.708V268.708ZM174.825 272.313C172.146 274.769 170.697 278.118 170.335 282.149L174.319 282.506C174.611 279.257 175.728 276.913 177.528 275.262L174.825 272.313ZM172.327 284.328H196.547V280.328H172.327V284.328ZM217.905 252.508H219.905V250.508H217.905V252.508ZM217.905 304.308V306.308H219.905V304.308H217.905ZM211.535 304.308H209.535V306.308H211.535V304.308ZM211.535 252.508V250.508H209.535V252.508H211.535ZM215.905 252.508V304.308H219.905V252.508H215.905ZM217.905 302.308H211.535V306.308H217.905V302.308ZM213.535 304.308V252.508H209.535V304.308H213.535ZM211.535 254.508H217.905V250.508H211.535V254.508ZM235.692 302.488L234.708 304.229L234.72 304.236L235.692 302.488ZM228.832 295.558L227.071 296.506L227.08 296.522L227.089 296.538L228.832 295.558ZM228.902 274.698L227.164 273.708L227.159 273.717L228.902 274.698ZM235.902 267.768L236.852 269.528L236.862 269.522L236.873 269.516L235.902 267.768ZM255.642 267.768L254.67 269.516L254.681 269.522L254.692 269.528L255.642 267.768ZM262.572 274.628L260.829 275.608L260.834 275.618L260.84 275.629L262.572 274.628ZM262.502 295.558L260.775 294.548L260.77 294.557L262.502 295.558ZM255.432 302.488L256.391 304.242L256.391 304.242L255.432 302.488ZM256.762 292.898L255.037 291.885L255.029 291.899L255.021 291.914L256.762 292.898ZM252.072 272.458L251.111 274.212L251.127 274.221L251.144 274.229L252.072 272.458ZM239.262 272.458L240.207 274.22L240.215 274.216L240.222 274.212L239.262 272.458ZM234.642 277.218L236.399 278.173L236.399 278.173L234.642 277.218ZM234.572 292.968L232.799 293.893L232.806 293.908L232.814 293.923L234.572 292.968ZM239.192 297.798L238.213 299.542L238.23 299.551L238.246 299.56L239.192 297.798ZM245.492 302.938C242.214 302.938 239.286 302.196 236.663 300.739L234.72 304.236C237.978 306.046 241.582 306.938 245.492 306.938V302.938ZM236.675 300.746C234.11 299.298 232.082 297.256 230.575 294.577L227.089 296.538C228.942 299.833 231.487 302.411 234.709 304.229L236.675 300.746ZM230.593 294.609C229.139 291.909 228.382 288.744 228.382 285.058H224.382C224.382 289.305 225.258 293.14 227.071 296.506L230.593 294.609ZM228.382 285.058C228.382 281.431 229.156 278.325 230.645 275.678L227.159 273.717C225.287 277.044 224.382 280.844 224.382 285.058H228.382ZM230.64 275.687C232.19 272.964 234.256 270.928 236.852 269.528L234.952 266.008C231.667 267.78 229.067 270.365 227.164 273.708L230.64 275.687ZM236.873 269.516C239.492 268.061 242.443 267.318 245.772 267.318V263.318C241.821 263.318 238.192 264.208 234.93 266.019L236.873 269.516ZM245.772 267.318C249.101 267.318 252.052 268.061 254.67 269.516L256.613 266.019C253.352 264.208 249.723 263.318 245.772 263.318V267.318ZM254.692 269.528C257.29 270.93 259.329 272.942 260.829 275.608L264.315 273.647C262.454 270.34 259.873 267.779 256.592 266.008L254.692 269.528ZM260.84 275.629C262.366 278.268 263.162 281.389 263.162 285.058H267.162C267.162 280.793 266.231 276.961 264.303 273.627L260.84 275.629ZM263.162 285.058C263.162 288.716 262.347 291.859 260.775 294.548L264.228 296.567C266.203 293.19 267.162 289.332 267.162 285.058H263.162ZM260.77 294.557C259.224 297.231 257.133 299.278 254.472 300.733L256.391 304.242C259.704 302.431 262.326 299.858 264.233 296.559L260.77 294.557ZM254.472 300.733C251.8 302.194 248.82 302.938 245.492 302.938V306.938C249.443 306.938 253.09 306.048 256.391 304.242L254.472 300.733ZM245.492 301.338C248.106 301.338 250.577 300.721 252.875 299.491L250.988 295.964C249.273 296.881 247.451 297.338 245.492 297.338V301.338ZM252.875 299.491C255.244 298.224 257.119 296.33 258.503 293.882L255.021 291.914C253.978 293.759 252.633 295.085 250.988 295.964L252.875 299.491ZM258.487 293.91C259.965 291.391 260.652 288.41 260.652 285.058H256.652C256.652 287.866 256.079 290.111 255.037 291.885L258.487 293.91ZM260.652 285.058C260.652 281.718 259.993 278.747 258.573 276.234L255.091 278.202C256.097 279.982 256.652 282.238 256.652 285.058H260.652ZM258.573 276.234C257.192 273.791 255.339 271.911 253 270.686L251.144 274.229C252.724 275.057 254.044 276.351 255.091 278.202L258.573 276.234ZM253.032 270.704C250.771 269.465 248.316 268.848 245.702 268.848V272.848C247.661 272.848 249.453 273.304 251.111 274.212L253.032 270.704ZM245.702 268.848C243.048 268.848 240.569 269.462 238.301 270.703L240.222 274.212C241.875 273.307 243.689 272.848 245.702 272.848V268.848ZM238.316 270.695C236.017 271.929 234.213 273.818 232.884 276.263L236.399 278.173C237.404 276.324 238.679 275.04 240.207 274.22L238.316 270.695ZM232.884 276.263C231.522 278.769 230.892 281.729 230.892 285.058H234.892C234.892 282.226 235.428 279.96 236.399 278.173L232.884 276.263ZM230.892 285.058C230.892 288.416 231.492 291.39 232.799 293.893L236.345 292.043C235.411 290.253 234.892 287.953 234.892 285.058H230.892ZM232.814 293.923C234.14 296.362 235.935 298.264 238.213 299.542L240.17 296.053C238.622 295.185 237.337 293.867 236.329 292.013L232.814 293.923ZM238.246 299.56C240.466 300.751 242.893 301.338 245.492 301.338V297.338C243.517 297.338 241.744 296.898 240.137 296.035L238.246 299.56ZM279.907 273.018H277.907V280.514L281.641 274.014L279.907 273.018ZM285.507 267.558L286.517 269.284L286.527 269.278L285.507 267.558ZM303.497 267.768L302.477 269.488L302.483 269.492L302.489 269.495L303.497 267.768ZM310.077 274.698L308.311 275.636L308.317 275.648L310.077 274.698ZM310.077 295.348L311.849 296.275L311.849 296.275L310.077 295.348ZM303.497 302.418L302.468 300.703L302.462 300.707L302.455 300.71L303.497 302.418ZM285.577 302.768L284.543 304.48L284.562 304.491L284.581 304.502L285.577 302.768ZM279.907 297.238L281.625 296.214L277.907 289.973V297.238H279.907ZM279.907 322.508V324.508H281.907V322.508H279.907ZM273.537 322.508H271.537V324.508H273.537V322.508ZM273.537 265.948V263.948H271.537V265.948H273.537ZM279.907 265.948H281.907V263.948H279.907V265.948ZM304.197 277.428L305.954 276.473L305.954 276.473L304.197 277.428ZM299.437 272.528L298.445 274.264L298.454 274.269L298.462 274.274L299.437 272.528ZM286.417 272.598L287.409 274.334L287.416 274.33L287.422 274.327L286.417 272.598ZM281.657 277.568L279.907 276.6L279.903 276.606L279.9 276.613L281.657 277.568ZM281.657 292.688L279.891 293.627L279.903 293.65L279.916 293.672L281.657 292.688ZM286.417 297.658L285.394 299.376L285.418 299.391L285.442 299.404L286.417 297.658ZM299.437 297.658L300.429 299.394L300.436 299.39L300.442 299.387L299.437 297.658ZM304.197 292.688L305.954 293.643L305.959 293.635L305.963 293.627L304.197 292.688ZM281.641 274.014C282.706 272.161 284.304 270.578 286.517 269.284L284.497 265.831C281.764 267.43 279.629 269.487 278.173 272.021L281.641 274.014ZM286.527 269.278C288.699 267.991 291.254 267.318 294.257 267.318V263.318C290.633 263.318 287.355 264.138 284.487 265.837L286.527 269.278ZM294.257 267.318C297.329 267.318 300.052 268.05 302.477 269.488L304.517 266.048C301.435 264.219 297.999 263.318 294.257 263.318V267.318ZM302.489 269.495C304.954 270.933 306.891 272.963 308.311 275.636L311.843 273.759C310.09 270.459 307.64 267.869 304.505 266.04L302.489 269.495ZM308.317 275.648C309.721 278.249 310.457 281.342 310.457 284.988H314.457C314.457 280.794 313.607 277.026 311.837 273.748L308.317 275.648ZM310.457 284.988C310.457 288.581 309.723 291.709 308.305 294.421L311.849 296.275C313.604 292.92 314.457 289.141 314.457 284.988H310.457ZM308.305 294.421C306.88 297.144 304.937 299.221 302.468 300.703L304.526 304.133C307.657 302.254 310.101 299.618 311.849 296.275L308.305 294.421ZM302.455 300.71C300.034 302.188 297.318 302.938 294.257 302.938V306.938C298.01 306.938 301.454 306.007 304.539 304.125L302.455 300.71ZM294.257 302.938C291.296 302.938 288.754 302.285 286.573 301.033L284.581 304.502C287.441 306.144 290.685 306.938 294.257 306.938V302.938ZM286.611 301.056C284.381 299.709 282.743 298.09 281.625 296.214L278.189 298.261C279.685 300.772 281.826 302.839 284.543 304.48L286.611 301.056ZM277.907 297.238V322.508H281.907V297.238H277.907ZM279.907 320.508H273.537V324.508H279.907V320.508ZM275.537 322.508V265.948H271.537V322.508H275.537ZM273.537 267.948H279.907V263.948H273.537V267.948ZM277.907 265.948V273.018H281.907V265.948H277.907ZM307.947 284.988C307.947 281.822 307.307 278.962 305.954 276.473L302.44 278.383C303.42 280.187 303.947 282.367 303.947 284.988H307.947ZM305.954 276.473C304.619 274.015 302.77 272.098 300.412 270.781L298.462 274.274C300.117 275.198 301.442 276.547 302.44 278.383L305.954 276.473ZM300.429 270.791C298.151 269.489 295.636 268.848 292.927 268.848V272.848C294.979 272.848 296.804 273.326 298.445 274.264L300.429 270.791ZM292.927 268.848C290.243 268.848 287.725 269.524 285.412 270.869L287.422 274.327C289.122 273.339 290.945 272.848 292.927 272.848V268.848ZM285.425 270.861C283.112 272.183 281.278 274.122 279.907 276.6L283.407 278.536C284.463 276.627 285.802 275.253 287.409 274.334L285.425 270.861ZM279.9 276.613C278.549 279.098 277.907 281.933 277.907 285.058H281.907C281.907 282.489 282.431 280.331 283.414 278.523L279.9 276.613ZM277.907 285.058C277.907 288.224 278.547 291.1 279.891 293.627L283.423 291.748C282.434 289.889 281.907 287.678 281.907 285.058H277.907ZM279.916 293.672C281.286 296.096 283.111 298.017 285.394 299.376L287.44 295.939C285.803 294.965 284.455 293.572 283.398 291.704L279.916 293.672ZM285.442 299.404C287.752 300.693 290.258 301.338 292.927 301.338V297.338C290.93 297.338 289.096 296.862 287.392 295.911L285.442 299.404ZM292.927 301.338C295.636 301.338 298.151 300.696 300.429 299.394L298.445 295.921C296.804 296.859 294.979 297.338 292.927 297.338V301.338ZM300.442 299.387C302.783 298.026 304.622 296.094 305.954 293.643L302.44 291.733C301.439 293.575 300.105 294.956 298.432 295.929L300.442 299.387ZM305.963 293.627C307.309 291.096 307.947 288.195 307.947 284.988H303.947C303.947 287.66 303.418 289.893 302.431 291.748L305.963 293.627Z" fill="white"/>
<rect x="4" y="4" width="578" height="346" stroke="black" stroke-width="8"/>
</svg>
