<svg width="995" height="64" viewBox="0 0 995 64" fill="none" xmlns="http://www.w3.org/2000/svg">
<mask id="path-1-outside-1" maskUnits="userSpaceOnUse" x="0.839966" y="0.52002" width="994" height="64" fill="black">
<rect fill="white" x="0.839966" y="0.52002" width="994" height="64"/>
<path d="M79.24 4.24002L63.08 60H54.92L41.96 15.12L28.52 60L20.44 60.08L4.83997 4.24002H12.6L24.76 51.52L38.2 4.24002H46.36L59.16 51.36L71.4 4.24002H79.24Z"/>
<path d="M94.4868 10.16V28.8H114.807V34.8H94.4868V54H117.207V60H87.2068V4.16002H117.207V10.16H94.4868Z"/>
<path d="M135.502 54.08H155.022V60H128.222V4.24002H135.502V54.08Z"/>
<path d="M160.034 32.08C160.034 26.64 161.26 21.76 163.714 17.44C166.167 13.0667 169.5 9.65335 173.714 7.20002C177.98 4.74669 182.7 3.52002 187.874 3.52002C193.954 3.52002 199.26 4.98669 203.794 7.92002C208.327 10.8534 211.634 15.0134 213.714 20.4H204.994C203.447 17.04 201.207 14.4534 198.274 12.64C195.394 10.8267 191.927 9.92002 187.874 9.92002C183.98 9.92002 180.487 10.8267 177.394 12.64C174.3 14.4534 171.874 17.04 170.114 20.4C168.354 23.7067 167.474 27.6 167.474 32.08C167.474 36.5067 168.354 40.4 170.114 43.76C171.874 47.0667 174.3 49.6267 177.394 51.44C180.487 53.2534 183.98 54.16 187.874 54.16C191.927 54.16 195.394 53.28 198.274 51.52C201.207 49.7067 203.447 47.12 204.994 43.76H213.714C211.634 49.0934 208.327 53.2267 203.794 56.16C199.26 59.04 193.954 60.48 187.874 60.48C182.7 60.48 177.98 59.28 173.714 56.88C169.5 54.4267 166.167 51.04 163.714 46.72C161.26 42.4 160.034 37.52 160.034 32.08Z"/>
<path d="M249.831 60.56C244.657 60.56 239.937 59.36 235.671 56.96C231.404 54.5067 228.017 51.12 225.511 46.8C223.057 42.4267 221.831 37.52 221.831 32.08C221.831 26.64 223.057 21.76 225.511 17.44C228.017 13.0667 231.404 9.68002 235.671 7.28002C239.937 4.82669 244.657 3.60002 249.831 3.60002C255.057 3.60002 259.804 4.82669 264.071 7.28002C268.337 9.68002 271.697 13.04 274.151 17.36C276.604 21.68 277.831 26.5867 277.831 32.08C277.831 37.5734 276.604 42.48 274.151 46.8C271.697 51.12 268.337 54.5067 264.071 56.96C259.804 59.36 255.057 60.56 249.831 60.56ZM249.831 54.24C253.724 54.24 257.217 53.3334 260.311 51.52C263.457 49.7067 265.911 47.12 267.671 43.76C269.484 40.4 270.391 36.5067 270.391 32.08C270.391 27.6 269.484 23.7067 267.671 20.4C265.911 17.04 263.484 14.4534 260.391 12.64C257.297 10.8267 253.777 9.92002 249.831 9.92002C245.884 9.92002 242.364 10.8267 239.271 12.64C236.177 14.4534 233.724 17.04 231.911 20.4C230.151 23.7067 229.271 27.6 229.271 32.08C229.271 36.5067 230.151 40.4 231.911 43.76C233.724 47.12 236.177 49.7067 239.271 51.52C242.417 53.3334 245.937 54.24 249.831 54.24Z"/>
<path d="M344.001 4.64002V60H336.721V18.72L318.321 60H313.201L294.721 18.64V60H287.441V4.64002H295.281L315.761 50.4L336.241 4.64002H344.001Z"/>
<path d="M363.627 10.16V28.8H383.947V34.8H363.627V54H386.347V60H356.347V4.16002H386.347V10.16H363.627Z"/>
<path d="M453.011 4.24002V10.16H437.811V60H430.531V10.16H415.251V4.24002H453.011Z"/>
<path d="M487.252 60.56C482.079 60.56 477.359 59.36 473.092 56.96C468.826 54.5067 465.439 51.12 462.932 46.8C460.479 42.4267 459.252 37.52 459.252 32.08C459.252 26.64 460.479 21.76 462.932 17.44C465.439 13.0667 468.826 9.68002 473.092 7.28002C477.359 4.82669 482.079 3.60002 487.252 3.60002C492.479 3.60002 497.226 4.82669 501.492 7.28002C505.759 9.68002 509.119 13.04 511.572 17.36C514.026 21.68 515.252 26.5867 515.252 32.08C515.252 37.5734 514.026 42.48 511.572 46.8C509.119 51.12 505.759 54.5067 501.492 56.96C497.226 59.36 492.479 60.56 487.252 60.56ZM487.252 54.24C491.146 54.24 494.639 53.3334 497.732 51.52C500.879 49.7067 503.332 47.12 505.092 43.76C506.906 40.4 507.812 36.5067 507.812 32.08C507.812 27.6 506.906 23.7067 505.092 20.4C503.332 17.04 500.906 14.4534 497.812 12.64C494.719 10.8267 491.199 9.92002 487.252 9.92002C483.306 9.92002 479.786 10.8267 476.692 12.64C473.599 14.4534 471.146 17.04 469.332 20.4C467.572 23.7067 466.692 27.6 466.692 32.08C466.692 36.5067 467.572 40.4 469.332 43.76C471.146 47.12 473.599 49.7067 476.692 51.52C479.839 53.3334 483.359 54.24 487.252 54.24Z"/>
<path d="M602.751 4.64002V60H595.471V18.72L577.071 60H571.951L553.471 18.64V60H546.191V4.64002H554.031L574.511 50.4L594.991 4.64002H602.751Z"/>
<path d="M654.137 4.24002L635.977 38.96V60H628.697V38.96L610.457 4.24002H618.537L632.297 32.48L646.057 4.24002H654.137Z"/>
<path d="M753.224 4.24002L737.064 60H728.904L715.944 15.12L702.504 60L694.424 60.08L678.824 4.24002H686.584L698.744 51.52L712.184 4.24002H720.344L733.144 51.36L745.384 4.24002H753.224Z"/>
<path d="M768.471 10.16V28.8H788.791V34.8H768.471V54H791.191V60H761.191V4.16002H791.191V10.16H768.471Z"/>
<path d="M830.127 31.28C832.154 31.6 833.993 32.4267 835.647 33.76C837.353 35.0934 838.687 36.7467 839.647 38.72C840.66 40.6934 841.167 42.8 841.167 45.04C841.167 47.8667 840.447 50.4267 839.007 52.72C837.567 54.96 835.46 56.7467 832.687 58.08C829.967 59.36 826.74 60 823.007 60H802.207V4.24002H822.207C825.993 4.24002 829.22 4.88002 831.887 6.16002C834.554 7.38669 836.554 9.06669 837.887 11.2C839.22 13.3334 839.887 15.7334 839.887 18.4C839.887 21.7067 838.98 24.4534 837.167 26.64C835.407 28.7734 833.06 30.32 830.127 31.28ZM809.487 28.32H821.727C825.14 28.32 827.78 27.52 829.647 25.92C831.513 24.32 832.447 22.1067 832.447 19.28C832.447 16.4534 831.513 14.24 829.647 12.64C827.78 11.04 825.087 10.24 821.567 10.24H809.487V28.32ZM822.367 54C825.993 54 828.82 53.1467 830.847 51.44C832.873 49.7334 833.887 47.36 833.887 44.32C833.887 41.2267 832.82 38.8 830.687 37.04C828.553 35.2267 825.7 34.32 822.127 34.32H809.487V54H822.367Z"/>
<path d="M868.949 60.56C865.269 60.56 861.963 59.92 859.029 58.64C856.149 57.3067 853.883 55.4934 852.229 53.2C850.576 50.8534 849.723 48.16 849.669 45.12H857.429C857.696 47.7334 858.763 49.9467 860.629 51.76C862.549 53.52 865.323 54.4 868.949 54.4C872.416 54.4 875.136 53.5467 877.109 51.84C879.136 50.08 880.149 47.84 880.149 45.12C880.149 42.9867 879.563 41.2534 878.389 39.92C877.216 38.5867 875.749 37.5734 873.989 36.88C872.229 36.1867 869.856 35.44 866.869 34.64C863.189 33.68 860.229 32.72 857.989 31.76C855.803 30.8 853.909 29.3067 852.309 27.28C850.763 25.2 849.989 22.4267 849.989 18.96C849.989 15.92 850.763 13.2267 852.309 10.88C853.856 8.53335 856.016 6.72002 858.789 5.44002C861.616 4.16002 864.843 3.52002 868.469 3.52002C873.696 3.52002 877.963 4.82669 881.269 7.44002C884.629 10.0534 886.523 13.52 886.949 17.84H878.949C878.683 15.7067 877.563 13.84 875.589 12.24C873.616 10.5867 871.003 9.76002 867.749 9.76002C864.709 9.76002 862.229 10.56 860.309 12.16C858.389 13.7067 857.429 15.8934 857.429 18.72C857.429 20.7467 857.989 22.4 859.109 23.68C860.283 24.96 861.696 25.9467 863.349 26.64C865.056 27.28 867.429 28.0267 870.469 28.88C874.149 29.8934 877.109 30.9067 879.349 31.92C881.589 32.88 883.509 34.4 885.109 36.48C886.709 38.5067 887.509 41.28 887.509 44.8C887.509 47.52 886.789 50.08 885.349 52.48C883.909 54.88 881.776 56.8267 878.949 58.32C876.123 59.8134 872.789 60.56 868.949 60.56Z"/>
<path d="M905.502 4.24002V60H898.222V4.24002H905.502Z"/>
<path d="M952.23 4.24002V10.16H937.03V60H929.75V10.16H914.47V4.24002H952.23Z"/>
<path d="M968.471 10.16V28.8H988.791V34.8H968.471V54H991.191V60H961.191V4.16002H991.191V10.16H968.471Z"/>
</mask>
<path d="M79.24 4.24002L63.08 60H54.92L41.96 15.12L28.52 60L20.44 60.08L4.83997 4.24002H12.6L24.76 51.52L38.2 4.24002H46.36L59.16 51.36L71.4 4.24002H79.24Z" fill="black"/>
<path d="M94.4868 10.16V28.8H114.807V34.8H94.4868V54H117.207V60H87.2068V4.16002H117.207V10.16H94.4868Z" fill="black"/>
<path d="M135.502 54.08H155.022V60H128.222V4.24002H135.502V54.08Z" fill="black"/>
<path d="M160.034 32.08C160.034 26.64 161.26 21.76 163.714 17.44C166.167 13.0667 169.5 9.65335 173.714 7.20002C177.98 4.74669 182.7 3.52002 187.874 3.52002C193.954 3.52002 199.26 4.98669 203.794 7.92002C208.327 10.8534 211.634 15.0134 213.714 20.4H204.994C203.447 17.04 201.207 14.4534 198.274 12.64C195.394 10.8267 191.927 9.92002 187.874 9.92002C183.98 9.92002 180.487 10.8267 177.394 12.64C174.3 14.4534 171.874 17.04 170.114 20.4C168.354 23.7067 167.474 27.6 167.474 32.08C167.474 36.5067 168.354 40.4 170.114 43.76C171.874 47.0667 174.3 49.6267 177.394 51.44C180.487 53.2534 183.98 54.16 187.874 54.16C191.927 54.16 195.394 53.28 198.274 51.52C201.207 49.7067 203.447 47.12 204.994 43.76H213.714C211.634 49.0934 208.327 53.2267 203.794 56.16C199.26 59.04 193.954 60.48 187.874 60.48C182.7 60.48 177.98 59.28 173.714 56.88C169.5 54.4267 166.167 51.04 163.714 46.72C161.26 42.4 160.034 37.52 160.034 32.08Z" fill="black"/>
<path d="M249.831 60.56C244.657 60.56 239.937 59.36 235.671 56.96C231.404 54.5067 228.017 51.12 225.511 46.8C223.057 42.4267 221.831 37.52 221.831 32.08C221.831 26.64 223.057 21.76 225.511 17.44C228.017 13.0667 231.404 9.68002 235.671 7.28002C239.937 4.82669 244.657 3.60002 249.831 3.60002C255.057 3.60002 259.804 4.82669 264.071 7.28002C268.337 9.68002 271.697 13.04 274.151 17.36C276.604 21.68 277.831 26.5867 277.831 32.08C277.831 37.5734 276.604 42.48 274.151 46.8C271.697 51.12 268.337 54.5067 264.071 56.96C259.804 59.36 255.057 60.56 249.831 60.56ZM249.831 54.24C253.724 54.24 257.217 53.3334 260.311 51.52C263.457 49.7067 265.911 47.12 267.671 43.76C269.484 40.4 270.391 36.5067 270.391 32.08C270.391 27.6 269.484 23.7067 267.671 20.4C265.911 17.04 263.484 14.4534 260.391 12.64C257.297 10.8267 253.777 9.92002 249.831 9.92002C245.884 9.92002 242.364 10.8267 239.271 12.64C236.177 14.4534 233.724 17.04 231.911 20.4C230.151 23.7067 229.271 27.6 229.271 32.08C229.271 36.5067 230.151 40.4 231.911 43.76C233.724 47.12 236.177 49.7067 239.271 51.52C242.417 53.3334 245.937 54.24 249.831 54.24Z" fill="black"/>
<path d="M344.001 4.64002V60H336.721V18.72L318.321 60H313.201L294.721 18.64V60H287.441V4.64002H295.281L315.761 50.4L336.241 4.64002H344.001Z" fill="black"/>
<path d="M363.627 10.16V28.8H383.947V34.8H363.627V54H386.347V60H356.347V4.16002H386.347V10.16H363.627Z" fill="black"/>
<path d="M453.011 4.24002V10.16H437.811V60H430.531V10.16H415.251V4.24002H453.011Z" fill="black"/>
<path d="M487.252 60.56C482.079 60.56 477.359 59.36 473.092 56.96C468.826 54.5067 465.439 51.12 462.932 46.8C460.479 42.4267 459.252 37.52 459.252 32.08C459.252 26.64 460.479 21.76 462.932 17.44C465.439 13.0667 468.826 9.68002 473.092 7.28002C477.359 4.82669 482.079 3.60002 487.252 3.60002C492.479 3.60002 497.226 4.82669 501.492 7.28002C505.759 9.68002 509.119 13.04 511.572 17.36C514.026 21.68 515.252 26.5867 515.252 32.08C515.252 37.5734 514.026 42.48 511.572 46.8C509.119 51.12 505.759 54.5067 501.492 56.96C497.226 59.36 492.479 60.56 487.252 60.56ZM487.252 54.24C491.146 54.24 494.639 53.3334 497.732 51.52C500.879 49.7067 503.332 47.12 505.092 43.76C506.906 40.4 507.812 36.5067 507.812 32.08C507.812 27.6 506.906 23.7067 505.092 20.4C503.332 17.04 500.906 14.4534 497.812 12.64C494.719 10.8267 491.199 9.92002 487.252 9.92002C483.306 9.92002 479.786 10.8267 476.692 12.64C473.599 14.4534 471.146 17.04 469.332 20.4C467.572 23.7067 466.692 27.6 466.692 32.08C466.692 36.5067 467.572 40.4 469.332 43.76C471.146 47.12 473.599 49.7067 476.692 51.52C479.839 53.3334 483.359 54.24 487.252 54.24Z" fill="black"/>
<path d="M602.751 4.64002V60H595.471V18.72L577.071 60H571.951L553.471 18.64V60H546.191V4.64002H554.031L574.511 50.4L594.991 4.64002H602.751Z" fill="black"/>
<path d="M654.137 4.24002L635.977 38.96V60H628.697V38.96L610.457 4.24002H618.537L632.297 32.48L646.057 4.24002H654.137Z" fill="black"/>
<path d="M753.224 4.24002L737.064 60H728.904L715.944 15.12L702.504 60L694.424 60.08L678.824 4.24002H686.584L698.744 51.52L712.184 4.24002H720.344L733.144 51.36L745.384 4.24002H753.224Z" fill="black"/>
<path d="M768.471 10.16V28.8H788.791V34.8H768.471V54H791.191V60H761.191V4.16002H791.191V10.16H768.471Z" fill="black"/>
<path d="M830.127 31.28C832.154 31.6 833.993 32.4267 835.647 33.76C837.353 35.0934 838.687 36.7467 839.647 38.72C840.66 40.6934 841.167 42.8 841.167 45.04C841.167 47.8667 840.447 50.4267 839.007 52.72C837.567 54.96 835.46 56.7467 832.687 58.08C829.967 59.36 826.74 60 823.007 60H802.207V4.24002H822.207C825.993 4.24002 829.22 4.88002 831.887 6.16002C834.554 7.38669 836.554 9.06669 837.887 11.2C839.22 13.3334 839.887 15.7334 839.887 18.4C839.887 21.7067 838.98 24.4534 837.167 26.64C835.407 28.7734 833.06 30.32 830.127 31.28ZM809.487 28.32H821.727C825.14 28.32 827.78 27.52 829.647 25.92C831.513 24.32 832.447 22.1067 832.447 19.28C832.447 16.4534 831.513 14.24 829.647 12.64C827.78 11.04 825.087 10.24 821.567 10.24H809.487V28.32ZM822.367 54C825.993 54 828.82 53.1467 830.847 51.44C832.873 49.7334 833.887 47.36 833.887 44.32C833.887 41.2267 832.82 38.8 830.687 37.04C828.553 35.2267 825.7 34.32 822.127 34.32H809.487V54H822.367Z" fill="black"/>
<path d="M868.949 60.56C865.269 60.56 861.963 59.92 859.029 58.64C856.149 57.3067 853.883 55.4934 852.229 53.2C850.576 50.8534 849.723 48.16 849.669 45.12H857.429C857.696 47.7334 858.763 49.9467 860.629 51.76C862.549 53.52 865.323 54.4 868.949 54.4C872.416 54.4 875.136 53.5467 877.109 51.84C879.136 50.08 880.149 47.84 880.149 45.12C880.149 42.9867 879.563 41.2534 878.389 39.92C877.216 38.5867 875.749 37.5734 873.989 36.88C872.229 36.1867 869.856 35.44 866.869 34.64C863.189 33.68 860.229 32.72 857.989 31.76C855.803 30.8 853.909 29.3067 852.309 27.28C850.763 25.2 849.989 22.4267 849.989 18.96C849.989 15.92 850.763 13.2267 852.309 10.88C853.856 8.53335 856.016 6.72002 858.789 5.44002C861.616 4.16002 864.843 3.52002 868.469 3.52002C873.696 3.52002 877.963 4.82669 881.269 7.44002C884.629 10.0534 886.523 13.52 886.949 17.84H878.949C878.683 15.7067 877.563 13.84 875.589 12.24C873.616 10.5867 871.003 9.76002 867.749 9.76002C864.709 9.76002 862.229 10.56 860.309 12.16C858.389 13.7067 857.429 15.8934 857.429 18.72C857.429 20.7467 857.989 22.4 859.109 23.68C860.283 24.96 861.696 25.9467 863.349 26.64C865.056 27.28 867.429 28.0267 870.469 28.88C874.149 29.8934 877.109 30.9067 879.349 31.92C881.589 32.88 883.509 34.4 885.109 36.48C886.709 38.5067 887.509 41.28 887.509 44.8C887.509 47.52 886.789 50.08 885.349 52.48C883.909 54.88 881.776 56.8267 878.949 58.32C876.123 59.8134 872.789 60.56 868.949 60.56Z" fill="black"/>
<path d="M905.502 4.24002V60H898.222V4.24002H905.502Z" fill="black"/>
<path d="M952.23 4.24002V10.16H937.03V60H929.75V10.16H914.47V4.24002H952.23Z" fill="black"/>
<path d="M968.471 10.16V28.8H988.791V34.8H968.471V54H991.191V60H961.191V4.16002H991.191V10.16H968.471Z" fill="black"/>
<path d="M79.24 4.24002L63.08 60H54.92L41.96 15.12L28.52 60L20.44 60.08L4.83997 4.24002H12.6L24.76 51.52L38.2 4.24002H46.36L59.16 51.36L71.4 4.24002H79.24Z" stroke="black" stroke-width="6" mask="url(#path-1-outside-1)"/>
<path d="M94.4868 10.16V28.8H114.807V34.8H94.4868V54H117.207V60H87.2068V4.16002H117.207V10.16H94.4868Z" stroke="black" stroke-width="6" mask="url(#path-1-outside-1)"/>
<path d="M135.502 54.08H155.022V60H128.222V4.24002H135.502V54.08Z" stroke="black" stroke-width="6" mask="url(#path-1-outside-1)"/>
<path d="M160.034 32.08C160.034 26.64 161.26 21.76 163.714 17.44C166.167 13.0667 169.5 9.65335 173.714 7.20002C177.98 4.74669 182.7 3.52002 187.874 3.52002C193.954 3.52002 199.26 4.98669 203.794 7.92002C208.327 10.8534 211.634 15.0134 213.714 20.4H204.994C203.447 17.04 201.207 14.4534 198.274 12.64C195.394 10.8267 191.927 9.92002 187.874 9.92002C183.98 9.92002 180.487 10.8267 177.394 12.64C174.3 14.4534 171.874 17.04 170.114 20.4C168.354 23.7067 167.474 27.6 167.474 32.08C167.474 36.5067 168.354 40.4 170.114 43.76C171.874 47.0667 174.3 49.6267 177.394 51.44C180.487 53.2534 183.98 54.16 187.874 54.16C191.927 54.16 195.394 53.28 198.274 51.52C201.207 49.7067 203.447 47.12 204.994 43.76H213.714C211.634 49.0934 208.327 53.2267 203.794 56.16C199.26 59.04 193.954 60.48 187.874 60.48C182.7 60.48 177.98 59.28 173.714 56.88C169.5 54.4267 166.167 51.04 163.714 46.72C161.26 42.4 160.034 37.52 160.034 32.08Z" stroke="black" stroke-width="6" mask="url(#path-1-outside-1)"/>
<path d="M249.831 60.56C244.657 60.56 239.937 59.36 235.671 56.96C231.404 54.5067 228.017 51.12 225.511 46.8C223.057 42.4267 221.831 37.52 221.831 32.08C221.831 26.64 223.057 21.76 225.511 17.44C228.017 13.0667 231.404 9.68002 235.671 7.28002C239.937 4.82669 244.657 3.60002 249.831 3.60002C255.057 3.60002 259.804 4.82669 264.071 7.28002C268.337 9.68002 271.697 13.04 274.151 17.36C276.604 21.68 277.831 26.5867 277.831 32.08C277.831 37.5734 276.604 42.48 274.151 46.8C271.697 51.12 268.337 54.5067 264.071 56.96C259.804 59.36 255.057 60.56 249.831 60.56ZM249.831 54.24C253.724 54.24 257.217 53.3334 260.311 51.52C263.457 49.7067 265.911 47.12 267.671 43.76C269.484 40.4 270.391 36.5067 270.391 32.08C270.391 27.6 269.484 23.7067 267.671 20.4C265.911 17.04 263.484 14.4534 260.391 12.64C257.297 10.8267 253.777 9.92002 249.831 9.92002C245.884 9.92002 242.364 10.8267 239.271 12.64C236.177 14.4534 233.724 17.04 231.911 20.4C230.151 23.7067 229.271 27.6 229.271 32.08C229.271 36.5067 230.151 40.4 231.911 43.76C233.724 47.12 236.177 49.7067 239.271 51.52C242.417 53.3334 245.937 54.24 249.831 54.24Z" stroke="black" stroke-width="6" mask="url(#path-1-outside-1)"/>
<path d="M344.001 4.64002V60H336.721V18.72L318.321 60H313.201L294.721 18.64V60H287.441V4.64002H295.281L315.761 50.4L336.241 4.64002H344.001Z" stroke="black" stroke-width="6" mask="url(#path-1-outside-1)"/>
<path d="M363.627 10.16V28.8H383.947V34.8H363.627V54H386.347V60H356.347V4.16002H386.347V10.16H363.627Z" stroke="black" stroke-width="6" mask="url(#path-1-outside-1)"/>
<path d="M453.011 4.24002V10.16H437.811V60H430.531V10.16H415.251V4.24002H453.011Z" stroke="black" stroke-width="6" mask="url(#path-1-outside-1)"/>
<path d="M487.252 60.56C482.079 60.56 477.359 59.36 473.092 56.96C468.826 54.5067 465.439 51.12 462.932 46.8C460.479 42.4267 459.252 37.52 459.252 32.08C459.252 26.64 460.479 21.76 462.932 17.44C465.439 13.0667 468.826 9.68002 473.092 7.28002C477.359 4.82669 482.079 3.60002 487.252 3.60002C492.479 3.60002 497.226 4.82669 501.492 7.28002C505.759 9.68002 509.119 13.04 511.572 17.36C514.026 21.68 515.252 26.5867 515.252 32.08C515.252 37.5734 514.026 42.48 511.572 46.8C509.119 51.12 505.759 54.5067 501.492 56.96C497.226 59.36 492.479 60.56 487.252 60.56ZM487.252 54.24C491.146 54.24 494.639 53.3334 497.732 51.52C500.879 49.7067 503.332 47.12 505.092 43.76C506.906 40.4 507.812 36.5067 507.812 32.08C507.812 27.6 506.906 23.7067 505.092 20.4C503.332 17.04 500.906 14.4534 497.812 12.64C494.719 10.8267 491.199 9.92002 487.252 9.92002C483.306 9.92002 479.786 10.8267 476.692 12.64C473.599 14.4534 471.146 17.04 469.332 20.4C467.572 23.7067 466.692 27.6 466.692 32.08C466.692 36.5067 467.572 40.4 469.332 43.76C471.146 47.12 473.599 49.7067 476.692 51.52C479.839 53.3334 483.359 54.24 487.252 54.24Z" stroke="black" stroke-width="6" mask="url(#path-1-outside-1)"/>
<path d="M602.751 4.64002V60H595.471V18.72L577.071 60H571.951L553.471 18.64V60H546.191V4.64002H554.031L574.511 50.4L594.991 4.64002H602.751Z" stroke="black" stroke-width="6" mask="url(#path-1-outside-1)"/>
<path d="M654.137 4.24002L635.977 38.96V60H628.697V38.96L610.457 4.24002H618.537L632.297 32.48L646.057 4.24002H654.137Z" stroke="black" stroke-width="6" mask="url(#path-1-outside-1)"/>
<path d="M753.224 4.24002L737.064 60H728.904L715.944 15.12L702.504 60L694.424 60.08L678.824 4.24002H686.584L698.744 51.52L712.184 4.24002H720.344L733.144 51.36L745.384 4.24002H753.224Z" stroke="black" stroke-width="6" mask="url(#path-1-outside-1)"/>
<path d="M768.471 10.16V28.8H788.791V34.8H768.471V54H791.191V60H761.191V4.16002H791.191V10.16H768.471Z" stroke="black" stroke-width="6" mask="url(#path-1-outside-1)"/>
<path d="M830.127 31.28C832.154 31.6 833.993 32.4267 835.647 33.76C837.353 35.0934 838.687 36.7467 839.647 38.72C840.66 40.6934 841.167 42.8 841.167 45.04C841.167 47.8667 840.447 50.4267 839.007 52.72C837.567 54.96 835.46 56.7467 832.687 58.08C829.967 59.36 826.74 60 823.007 60H802.207V4.24002H822.207C825.993 4.24002 829.22 4.88002 831.887 6.16002C834.554 7.38669 836.554 9.06669 837.887 11.2C839.22 13.3334 839.887 15.7334 839.887 18.4C839.887 21.7067 838.98 24.4534 837.167 26.64C835.407 28.7734 833.06 30.32 830.127 31.28ZM809.487 28.32H821.727C825.14 28.32 827.78 27.52 829.647 25.92C831.513 24.32 832.447 22.1067 832.447 19.28C832.447 16.4534 831.513 14.24 829.647 12.64C827.78 11.04 825.087 10.24 821.567 10.24H809.487V28.32ZM822.367 54C825.993 54 828.82 53.1467 830.847 51.44C832.873 49.7334 833.887 47.36 833.887 44.32C833.887 41.2267 832.82 38.8 830.687 37.04C828.553 35.2267 825.7 34.32 822.127 34.32H809.487V54H822.367Z" stroke="black" stroke-width="6" mask="url(#path-1-outside-1)"/>
<path d="M868.949 60.56C865.269 60.56 861.963 59.92 859.029 58.64C856.149 57.3067 853.883 55.4934 852.229 53.2C850.576 50.8534 849.723 48.16 849.669 45.12H857.429C857.696 47.7334 858.763 49.9467 860.629 51.76C862.549 53.52 865.323 54.4 868.949 54.4C872.416 54.4 875.136 53.5467 877.109 51.84C879.136 50.08 880.149 47.84 880.149 45.12C880.149 42.9867 879.563 41.2534 878.389 39.92C877.216 38.5867 875.749 37.5734 873.989 36.88C872.229 36.1867 869.856 35.44 866.869 34.64C863.189 33.68 860.229 32.72 857.989 31.76C855.803 30.8 853.909 29.3067 852.309 27.28C850.763 25.2 849.989 22.4267 849.989 18.96C849.989 15.92 850.763 13.2267 852.309 10.88C853.856 8.53335 856.016 6.72002 858.789 5.44002C861.616 4.16002 864.843 3.52002 868.469 3.52002C873.696 3.52002 877.963 4.82669 881.269 7.44002C884.629 10.0534 886.523 13.52 886.949 17.84H878.949C878.683 15.7067 877.563 13.84 875.589 12.24C873.616 10.5867 871.003 9.76002 867.749 9.76002C864.709 9.76002 862.229 10.56 860.309 12.16C858.389 13.7067 857.429 15.8934 857.429 18.72C857.429 20.7467 857.989 22.4 859.109 23.68C860.283 24.96 861.696 25.9467 863.349 26.64C865.056 27.28 867.429 28.0267 870.469 28.88C874.149 29.8934 877.109 30.9067 879.349 31.92C881.589 32.88 883.509 34.4 885.109 36.48C886.709 38.5067 887.509 41.28 887.509 44.8C887.509 47.52 886.789 50.08 885.349 52.48C883.909 54.88 881.776 56.8267 878.949 58.32C876.123 59.8134 872.789 60.56 868.949 60.56Z" stroke="black" stroke-width="6" mask="url(#path-1-outside-1)"/>
<path d="M905.502 4.24002V60H898.222V4.24002H905.502Z" stroke="black" stroke-width="6" mask="url(#path-1-outside-1)"/>
<path d="M952.23 4.24002V10.16H937.03V60H929.75V10.16H914.47V4.24002H952.23Z" stroke="black" stroke-width="6" mask="url(#path-1-outside-1)"/>
<path d="M968.471 10.16V28.8H988.791V34.8H968.471V54H991.191V60H961.191V4.16002H991.191V10.16H968.471Z" stroke="black" stroke-width="6" mask="url(#path-1-outside-1)"/>
</svg>
